<?xml version="1.0" standalone="no"?>
<!DOCTYPE svg PUBLIC "-//W3C//DTD SVG 20010904//EN"
 "http://www.w3.org/TR/2001/REC-SVG-20010904/DTD/svg10.dtd">
<svg version="1.0" xmlns="http://www.w3.org/2000/svg"
 width="684.000000pt" height="684.000000pt" viewBox="0 0 684.000000 684.000000"
 preserveAspectRatio="xMidYMid meet">
<metadata>
Created by potrace 1.14, written by Peter Selinger 2001-2017
</metadata>
<g transform="translate(0.000000,684.000000) scale(0.100000,-0.100000)"
fill="#000000" stroke="none">
<path d="M1455 6833 c3 -3 -2 -15 -12 -25 -9 -11 -11 -18 -5 -18 7 0 12 5 12
11 0 8 5 8 15 -1 12 -10 18 -10 33 1 15 13 16 12 4 -3 -9 -11 -25 -15 -48 -14
-19 2 -34 -1 -35 -8 0 -6 -5 -1 -11 12 -6 12 -15 22 -20 22 -12 0 -10 -14 5
-30 6 -7 0 -5 -15 6 -14 10 -22 21 -17 22 5 2 9 8 9 14 0 7 -5 6 -14 -1 -7 -6
-22 -9 -32 -5 -11 3 -6 -3 9 -14 16 -11 24 -22 19 -26 -6 -3 -12 -1 -14 6 -2
6 -13 12 -24 14 -18 3 -18 2 1 -13 19 -15 19 -15 -4 -8 -18 5 -22 4 -16 -5 5
-9 4 -11 -4 -6 -6 4 -9 11 -6 16 3 4 -1 10 -8 13 -9 3 -12 -4 -11 -23 1 -22
-2 -27 -14 -23 -11 5 -13 3 -7 -8 7 -12 6 -12 -7 -1 -11 9 -18 9 -21 2 -3 -6
-5 -6 -3 1 1 7 10 13 20 15 34 5 29 14 -5 10 -19 -2 -39 0 -44 4 -6 5 -17 4
-25 -2 -13 -8 -12 -9 2 -5 9 3 21 0 27 -7 8 -10 4 -11 -19 -8 -17 2 -30 9 -30
15 0 6 -3 7 -6 4 -4 -4 -2 -12 4 -20 8 -9 8 -17 0 -27 -8 -13 -9 -12 -5 2 3 9
-1 19 -9 22 -9 3 -12 1 -9 -4 3 -6 1 -10 -5 -10 -6 0 -8 -4 -5 -10 3 -5 1 -10
-4 -10 -10 0 -15 14 -12 33 1 5 -3 6 -8 2 -7 -3 -7 -15 -1 -30 7 -18 5 -27 -8
-37 -15 -12 -16 -11 -4 4 16 20 -2 36 -22 19 -7 -6 -16 -8 -20 -4 -4 4 -4 0 0
-10 6 -17 7 -17 21 0 13 17 13 16 4 -4 -8 -14 -18 -21 -31 -18 -15 3 -24 -3
-30 -20 -5 -14 -12 -25 -14 -25 -3 0 -3 6 0 13 3 8 -2 14 -10 14 -17 0 -29
-23 -20 -40 3 -7 -1 -4 -9 6 -20 24 -30 21 -22 -5 3 -13 3 -18 -2 -13 -13 17
-36 17 -30 1 4 -10 1 -13 -8 -9 -8 3 -12 10 -8 16 3 6 1 7 -6 3 -9 -6 -9 -11
1 -24 10 -12 10 -14 1 -8 -7 4 -13 2 -13 -3 0 -6 -5 -11 -11 -11 -5 0 -7 6 -3
13 6 9 3 8 -8 -1 -10 -8 -14 -20 -11 -30 6 -14 4 -15 -9 -4 -13 10 -15 9 -13
-12 2 -18 -1 -23 -15 -19 -16 4 -36 -16 -39 -39 -1 -5 -3 -8 -6 -8 -12 1 -33
-26 -28 -35 2 -5 -2 -2 -10 8 -15 18 -33 24 -22 8 3 -5 1 -12 -4 -16 -6 -3 -8
-12 -5 -20 4 -8 -3 -15 -17 -17 -13 -2 -29 -13 -35 -26 -17 -34 -27 -40 -19
-12 7 24 7 24 -8 5 -8 -11 -13 -24 -10 -28 3 -5 -3 -7 -13 -5 -11 2 -18 -2
-16 -10 1 -7 -5 -15 -13 -18 -8 -3 -12 -11 -8 -18 5 -7 2 -7 -8 1 -12 10 -20
7 -41 -17 -14 -17 -22 -30 -18 -30 5 0 15 9 23 20 8 11 17 17 20 13 4 -3 -2
-13 -13 -20 -11 -8 -18 -18 -15 -23 3 -5 -4 -7 -15 -5 -11 2 -18 0 -15 -5 3
-5 1 -11 -5 -15 -6 -4 -7 -12 -3 -18 13 -20 10 -54 -3 -54 -9 0 -10 4 -4 12 5
6 5 16 -2 25 -8 13 -9 12 -5 -1 3 -9 0 -22 -6 -28 -6 -6 -7 -11 -2 -11 4 0 0
-10 -11 -22 l-19 -21 30 19 30 18 -18 -20 c-9 -11 -17 -33 -17 -48 0 -16 -4
-25 -10 -21 -6 4 -7 12 -4 18 4 7 3 8 -1 4 -11 -9 -16 -37 -7 -36 20 3 21 -3
2 -23 -11 -12 -20 -27 -20 -32 0 -6 4 -5 9 2 7 11 9 11 14 -2 3 -8 1 -16 -5
-18 -6 -2 -12 -12 -14 -21 -1 -9 2 -15 6 -12 5 3 10 -9 12 -27 2 -20 8 -32 16
-31 21 5 13 -6 -15 -21 -16 -8 -23 -15 -17 -16 6 0 11 -8 11 -17 0 -33 3 -44
11 -40 4 3 7 -17 8 -44 0 -27 -3 -49 -7 -49 -3 0 -6 -14 -5 -30 0 -21 5 -29
14 -25 7 3 11 1 7 -4 -3 -5 1 -12 7 -14 10 -4 9 -6 -1 -6 -11 -1 -11 -4 0 -18
13 -16 12 -17 -3 -4 -10 7 -16 17 -13 20 2 4 -2 8 -10 8 -9 0 -11 -4 -6 -11 5
-6 8 -30 6 -53 -1 -23 1 -40 5 -38 4 3 6 18 5 35 -1 16 1 27 6 25 13 -9 7 -65
-9 -74 -12 -7 -12 -9 2 -14 10 -4 15 -3 12 1 -3 5 1 9 9 9 9 0 11 -5 6 -11
-10 -14 -8 -66 3 -84 7 -12 4 -12 -14 -2 -12 7 -20 7 -16 2 3 -6 3 -12 -1 -15
-5 -2 -2 -2 5 0 7 1 10 -2 7 -7 -3 -5 -1 -19 5 -30 10 -19 4 -25 -23 -21 -4 1
0 -10 9 -23 17 -27 17 -35 3 -52 -5 -7 -3 -11 6 -11 8 0 12 3 10 7 -2 4 2 7
10 7 10 0 12 -4 5 -12 -5 -7 -6 -16 -2 -20 4 -5 0 -6 -9 -3 -9 4 -16 1 -16 -8
0 -17 2 -17 30 -3 21 10 21 9 -2 -10 -16 -15 -19 -21 -8 -21 8 0 17 -7 21 -15
5 -13 2 -14 -17 -4 -22 12 -22 12 -3 -9 10 -12 23 -19 29 -15 6 3 7 1 3 -5 -4
-7 -15 -12 -24 -13 -11 0 -12 -2 -4 -6 7 -2 17 -14 23 -26 9 -18 9 -20 -2 -9
-7 6 -18 12 -24 12 -6 0 -7 -3 0 -8 6 -4 16 -19 24 -34 8 -15 19 -24 25 -21 6
4 5 0 -2 -9 -9 -11 -9 -18 -2 -21 6 -3 5 -4 -2 -2 -7 1 -12 8 -10 14 1 6 -2
11 -8 11 -13 0 -13 -17 0 -25 6 -4 8 -10 5 -15 -3 -5 0 -12 6 -16 8 -4 9 -3 5
4 -4 7 -2 12 3 12 14 0 14 -6 0 -32 -10 -18 -9 -20 5 -15 10 4 15 3 11 -2 -3
-5 0 -11 6 -13 5 -2 7 -11 3 -21 -5 -15 -9 -15 -23 -5 -15 12 -15 11 0 -7 9
-11 14 -26 12 -32 -3 -7 0 -13 6 -13 5 0 8 9 6 21 -4 17 -2 19 11 8 13 -10 12
-14 -3 -32 -10 -11 -13 -17 -7 -14 13 8 47 -37 37 -47 -11 -11 -12 -37 -2 -30
5 3 7 10 4 15 -4 5 2 6 11 2 11 -4 13 -8 6 -11 -7 -2 -12 -8 -12 -14 0 -6 8
-7 17 -4 10 4 14 4 11 0 -11 -10 12 -45 24 -38 7 4 8 3 4 -4 -4 -6 -14 -9 -24
-6 -15 5 -15 4 1 -6 9 -6 15 -17 11 -23 -3 -7 1 -4 9 6 10 12 17 14 22 8 3 -6
2 -11 -3 -11 -5 0 -12 -9 -15 -21 -5 -17 -3 -18 10 -7 15 12 15 11 4 -9 -11
-21 -9 -23 11 -23 21 -1 21 -2 5 -11 -9 -6 -15 -14 -12 -20 4 -5 0 -9 -7 -9
-9 0 -9 -3 2 -10 8 -5 20 -10 25 -10 6 0 3 5 -5 10 -8 5 -10 10 -5 10 6 0 17
-5 25 -10 12 -8 12 -10 1 -10 -11 0 -9 -6 5 -22 19 -23 19 -23 -2 -5 -11 9
-25 17 -30 17 -5 0 -2 -5 6 -10 13 -9 13 -11 0 -21 -13 -9 -12 -10 2 -5 10 3
20 1 23 -5 4 -5 11 -6 17 -3 7 4 8 2 4 -5 -4 -6 -11 -9 -16 -6 -5 3 -12 0 -16
-6 -4 -8 -3 -9 4 -5 7 4 12 2 12 -4 0 -6 5 -8 11 -4 7 4 10 1 7 -7 -3 -8 -11
-13 -17 -11 -7 1 -10 -2 -6 -8 5 -8 11 -8 20 0 21 18 37 3 24 -22 -7 -13 -7
-18 -1 -14 6 3 14 -3 17 -14 5 -16 10 -18 19 -11 10 8 18 5 31 -9 10 -11 13
-20 7 -20 -7 0 -12 5 -12 12 0 6 -2 9 -5 6 -3 -3 -3 -12 1 -21 5 -13 10 -14
25 -6 14 7 19 7 17 -3 -2 -6 4 -12 12 -13 10 0 15 -9 14 -28 -1 -15 3 -27 8
-27 6 0 8 7 5 15 -4 8 -1 17 5 21 7 4 8 3 4 -4 -4 -7 -2 -12 3 -12 6 0 10 -3
10 -7 -3 -20 2 -34 10 -28 16 10 23 -15 9 -32 -7 -9 -8 -14 -2 -10 6 3 20 -1
30 -9 10 -9 15 -13 9 -11 -5 3 -17 -2 -25 -11 -13 -14 -12 -15 4 -9 14 6 17 4
12 -9 -4 -10 -2 -14 6 -11 7 2 12 10 10 16 -1 7 3 9 9 6 8 -5 8 -10 0 -18 -15
-15 -14 -30 1 -21 9 5 9 2 -1 -9 -7 -9 -10 -18 -5 -18 5 -1 19 -3 32 -4 12 -1
26 -6 30 -10 4 -5 -1 -5 -10 -2 -12 4 -18 1 -18 -9 0 -9 6 -14 13 -11 6 2 21
0 31 -6 18 -9 18 -10 -5 -23 l-24 -14 25 4 c31 4 56 -8 71 -35 9 -17 8 -20 -2
-14 -8 5 -10 4 -5 -4 6 -9 11 -9 22 0 11 9 14 9 14 0 0 -7 5 -9 12 -5 7 4 8 3
4 -5 -4 -6 -12 -9 -17 -6 -5 3 -6 -1 -3 -10 4 -9 9 -14 11 -11 3 3 14 -5 25
-17 11 -12 17 -16 13 -10 -4 9 2 12 19 11 13 -1 23 -5 20 -9 -2 -4 5 -10 16
-14 11 -3 20 -11 20 -16 0 -6 5 -7 10 -4 6 4 10 3 9 -2 -6 -33 2 -52 21 -48
19 4 28 -9 13 -18 -5 -2 -2 -2 4 -1 7 2 17 -5 22 -14 6 -9 11 -12 11 -6 0 5
-5 15 -11 21 -9 9 -7 11 7 9 13 -2 18 -10 16 -25 -3 -21 -1 -22 41 -25 15 -1
22 -7 22 -21 0 -11 7 -21 15 -23 8 -2 26 -18 40 -35 13 -18 17 -26 8 -19 -14
11 -16 9 -14 -17 0 -16 5 -29 11 -28 5 1 9 -4 7 -11 -2 -9 2 -11 10 -6 19 12
39 14 32 3 -3 -5 -10 -7 -15 -4 -5 4 -9 -1 -9 -10 0 -10 -5 -13 -12 -9 -10 6
-10 5 -1 -8 7 -8 9 -19 5 -23 -4 -5 -1 -5 6 -1 7 4 10 11 7 16 -3 5 -1 11 4
15 6 3 8 -6 5 -21 -3 -16 -1 -23 6 -19 6 4 9 1 8 -7 -2 -7 3 -12 10 -10 8 1
10 -2 7 -8 -5 -8 -15 -6 -33 6 l-26 17 22 -28 c22 -27 21 -51 -1 -39 -7 4 -8
3 -4 -2 5 -5 12 -9 16 -9 4 0 15 -8 24 -17 16 -16 16 -17 0 -27 -24 -14 -7
-14 20 0 18 10 17 5 -8 -22 -16 -18 -23 -28 -14 -21 9 6 20 8 24 4 5 -4 5 -1
1 6 -4 6 -2 12 5 12 7 0 9 -8 6 -21 -4 -17 -3 -19 6 -10 17 17 31 13 16 -6
-11 -13 -11 -17 -1 -20 6 -3 9 -10 6 -15 -4 -7 -2 -8 4 -4 6 4 9 13 5 21 -3 8
0 15 7 15 6 0 9 -4 5 -9 -7 -12 24 -43 35 -36 5 3 12 1 15 -5 4 -6 1 -9 -7 -8
-7 2 -14 -7 -16 -19 -4 -25 16 -31 36 -11 9 9 12 9 12 0 0 -7 -4 -12 -10 -12
-5 0 -7 -8 -4 -17 5 -16 4 -16 -6 -3 -10 13 -11 13 -7 0 2 -8 9 -16 15 -16 33
-4 35 -6 17 -15 -17 -8 -16 -9 8 -5 29 4 45 -8 26 -20 -8 -5 -9 -3 -4 6 5 9 4
11 -4 6 -6 -4 -9 -11 -6 -16 7 -12 35 -1 35 13 0 6 3 7 6 4 4 -4 2 -13 -5 -21
-9 -11 -8 -15 5 -20 9 -3 21 -3 26 1 6 3 8 1 4 -5 -3 -5 0 -13 6 -16 7 -3 2
-3 -12 0 -19 4 -21 3 -9 -5 8 -5 27 -11 42 -13 15 -2 27 -7 27 -11 0 -4 0 -14
0 -23 0 -9 -5 -12 -12 -8 -7 5 -8 3 -3 -6 6 -10 12 -7 26 11 9 13 15 28 12 34
-4 5 -2 6 3 2 5 -5 9 -14 9 -20 0 -7 10 -12 22 -11 14 0 19 -4 16 -13 -4 -11
-10 -11 -29 2 -21 14 -24 14 -24 0 0 -8 3 -14 8 -14 4 1 14 1 22 0 13 -1 13
-2 0 -11 -21 -14 -3 -12 23 2 20 10 21 10 8 -6 -12 -14 -12 -16 3 -10 12 5 15
2 10 -12 -5 -18 -5 -18 6 -1 6 9 16 17 22 17 9 0 9 -3 0 -12 -15 -15 -15 -28
-1 -28 5 0 7 4 4 10 -3 6 -1 10 4 10 6 0 11 -5 11 -11 0 -5 4 -8 9 -5 4 3 19
-3 31 -14 13 -11 27 -20 32 -20 4 0 8 -5 8 -10 0 -11 -50 17 -62 35 -5 6 -8 5
-8 -3 0 -7 7 -15 16 -19 11 -4 12 -8 4 -13 -9 -5 -9 -9 -1 -14 6 -4 11 -2 11
3 0 6 4 11 10 11 5 0 7 -8 4 -17 -5 -14 -4 -15 4 -4 7 9 12 10 16 2 4 -6 12
-9 17 -6 5 4 9 1 9 -5 0 -6 4 -8 10 -5 6 3 10 1 10 -5 0 -6 4 -9 9 -6 5 3 14
-1 21 -9 7 -8 16 -12 21 -9 5 3 9 -3 9 -13 0 -15 2 -16 10 -3 6 9 10 10 10 3
0 -6 -5 -15 -11 -19 -8 -5 -6 -10 5 -16 9 -5 13 -14 10 -20 -4 -6 -3 -8 4 -4
6 3 17 -1 26 -9 9 -9 17 -11 21 -5 3 5 12 10 18 9 8 0 8 -2 -1 -6 -9 -3 -4
-10 13 -19 15 -8 32 -11 39 -7 6 3 3 -3 -8 -15 -10 -12 -24 -19 -30 -15 -6 3
-7 2 -3 -2 9 -11 39 -16 33 -6 -2 3 7 12 21 18 24 12 25 11 9 -6 -14 -15 -14
-20 -2 -30 11 -9 15 -8 19 3 4 11 1 13 -11 10 -14 -5 -14 -4 -2 4 21 15 31 5
25 -26 -4 -20 -3 -22 3 -8 8 17 11 16 36 -15 15 -19 25 -28 21 -20 -5 9 -3 12
6 9 8 -3 13 -10 12 -15 -1 -5 6 -9 15 -10 39 -3 57 -9 64 -18 5 -6 12 -5 20 4
11 11 11 13 -1 6 -9 -5 -12 -4 -7 3 4 7 -2 9 -20 6 -18 -3 -23 -1 -18 7 4 8 3
9 -4 5 -7 -4 -19 -3 -28 2 -15 8 -15 10 0 15 10 4 14 3 11 -3 -3 -5 3 -9 12
-9 52 -2 71 -6 67 -12 -2 -4 0 -10 6 -14 5 -3 10 -1 10 6 0 8 5 7 17 -2 9 -8
18 -13 20 -11 10 7 22 0 17 -11 -3 -8 2 -20 10 -27 9 -7 13 -17 9 -23 -3 -6
-1 -7 5 -3 19 11 52 -12 46 -32 -4 -10 -3 -13 3 -6 11 14 53 37 53 28 0 -4 -7
-12 -16 -18 -13 -10 -13 -12 5 -12 11 0 18 3 15 7 -2 4 7 7 20 7 18 0 23 -5
19 -17 -4 -12 -3 -13 5 -3 5 8 13 13 18 12 5 -1 10 4 12 10 2 6 -4 10 -13 8
-10 -2 -19 3 -21 10 -1 7 0 8 2 3 3 -5 14 -7 24 -4 11 3 18 9 15 13 -3 5 3 7
12 6 10 -2 16 -7 15 -12 -2 -5 -7 -8 -11 -7 -4 1 -8 -5 -8 -13 0 -19 3 -18 27
8 14 15 17 24 8 29 -15 10 103 -1 122 -11 30 -15 80 -1 80 23 0 8 -3 7 -9 -2
-5 -8 -22 -15 -38 -17 -15 -1 -22 0 -15 3 10 4 9 10 -5 26 -16 19 -16 20 0 8
12 -10 17 -10 17 -2 0 7 5 9 11 5 8 -4 7 -9 -2 -15 -11 -7 -11 -9 2 -9 9 0 24
10 33 23 13 19 15 19 9 2 -6 -18 -5 -18 10 -7 24 20 67 23 59 4 -3 -9 4 -6 17
7 12 12 26 19 31 16 15 -9 54 -15 46 -7 -7 7 -11 8 -37 11 -5 0 -7 6 -4 11 4
6 10 8 15 5 5 -3 11 -1 15 5 4 6 11 7 17 4 6 -4 5 3 -2 16 -6 12 -9 24 -6 28
3 3 6 0 6 -7 0 -7 5 -9 12 -5 7 4 8 3 4 -4 -4 -7 -2 -12 3 -12 6 0 11 4 11 9
0 6 9 9 19 8 11 0 17 -5 15 -9 -3 -4 0 -8 5 -8 6 0 11 -5 11 -12 0 -6 -7 -4
-18 5 -15 14 -19 14 -19 3 0 -8 5 -14 11 -13 6 1 10 -3 9 -9 -1 -7 10 -10 28
-9 24 2 27 0 18 -11 -8 -10 -8 -14 0 -14 6 0 10 -5 8 -11 -1 -6 5 -14 13 -16
9 -3 11 -1 5 4 -5 4 -11 15 -13 23 -2 11 2 9 13 -4 8 -10 12 -22 10 -27 -3 -4
1 -9 7 -12 8 -3 1 -9 -14 -15 -19 -8 -26 -16 -22 -27 3 -8 11 -12 18 -8 6 3 7
2 3 -3 -5 -5 -13 -10 -18 -10 -22 -3 -23 -5 -9 -14 10 -6 11 -10 3 -10 -7 0
-13 -9 -13 -21 0 -13 -4 -18 -12 -13 -10 6 -10 5 -1 -7 10 -12 10 -18 0 -29
-9 -10 -9 -11 1 -6 11 6 17 -5 13 -26 0 -5 4 -8 10 -8 8 0 7 -6 -2 -18 -7 -9
-10 -14 -5 -10 5 4 15 1 22 -7 16 -16 19 -29 4 -20 -5 3 -10 1 -10 -4 0 -6 5
-11 10 -11 6 0 10 -5 10 -11 0 -5 -5 -7 -11 -4 -6 4 -9 0 -7 -11 2 -11 10 -22
18 -26 12 -5 12 -7 -2 -7 -10 -1 -18 -8 -18 -17 0 -8 5 -12 11 -9 6 4 5 -2 -3
-14 -11 -18 -10 -23 7 -36 16 -12 17 -14 3 -9 -10 3 -18 1 -18 -5 0 -6 5 -11
10 -11 6 0 10 -5 10 -11 0 -5 -4 -8 -8 -5 -5 3 -9 -2 -9 -10 0 -8 6 -13 13
-10 8 3 16 0 20 -6 4 -7 3 -8 -4 -4 -16 10 -15 0 4 -29 9 -14 13 -25 9 -25 -4
0 -1 -8 6 -17 13 -16 12 -17 -2 -5 -14 10 -18 10 -23 -3 -3 -9 -2 -13 4 -10
14 9 12 -18 -2 -35 -10 -11 -9 -11 6 0 18 14 18 13 11 -9 -5 -16 -3 -26 6 -32
12 -7 12 -10 0 -21 -8 -7 -11 -8 -8 -2 3 6 0 11 -8 11 -12 0 -12 -3 -2 -15 6
-8 10 -16 7 -18 -3 -1 -1 -6 4 -11 5 -5 6 -3 2 5 -4 6 -2 12 3 12 14 0 14 -17
1 -25 -6 -4 -7 -12 -3 -18 4 -7 -1 -6 -10 2 -15 12 -17 12 -11 -4 5 -13 4 -16
-5 -10 -10 6 -11 3 -1 -15 11 -20 10 -21 -10 -10 -20 11 -21 10 -10 -10 8 -15
8 -20 1 -16 -6 4 -11 2 -11 -4 0 -6 -4 -9 -9 -6 -4 3 -6 -6 -3 -19 2 -14 9
-22 15 -18 6 4 7 1 2 -8 -11 -16 -14 -50 -5 -44 3 2 12 0 20 -6 12 -7 12 -9
-3 -9 -10 0 -15 -5 -12 -10 4 -6 12 -7 18 -3 7 4 5 -2 -3 -12 -9 -11 -10 -16
-2 -11 7 4 12 1 12 -8 0 -9 5 -16 12 -16 9 0 9 -3 0 -12 -15 -15 -15 -28 -1
-28 5 0 7 4 4 10 -3 5 2 10 11 10 10 0 14 -3 11 -7 -4 -3 -1 -13 6 -21 10 -13
9 -15 -3 -8 -10 5 -10 3 2 -6 12 -11 14 -18 6 -32 -6 -10 -7 -16 -2 -13 5 3
20 -1 34 -9 l25 -14 -29 5 c-26 4 -27 3 -13 -13 15 -18 12 -46 -4 -37 -5 4 -6
-1 -2 -10 4 -12 8 -13 13 -5 5 8 9 4 13 -10 4 -16 2 -20 -9 -16 -8 3 -13 2 -9
-3 3 -5 0 -11 -7 -13 -7 -3 -5 -7 6 -11 12 -5 15 -3 10 6 -6 9 -5 9 8 0 8 -7
19 -9 24 -5 4 4 3 0 -4 -10 -9 -11 -9 -18 -2 -21 6 -3 5 -4 -2 -3 -7 2 -12 8
-11 14 1 6 -7 7 -20 4 -18 -5 -19 -7 -4 -10 9 -2 17 -8 17 -13 0 -5 10 -14 23
-20 20 -9 20 -9 -5 -4 -15 3 -30 1 -33 -5 -3 -6 1 -7 9 -4 20 8 20 0 0 -20 -8
-9 -11 -16 -5 -16 5 0 15 8 20 18 9 15 10 14 11 -7 0 -13 3 -21 7 -18 3 4 12
2 19 -4 15 -12 7 -42 -8 -33 -6 4 -6 9 2 14 7 4 8 10 3 13 -5 3 -15 -3 -22
-15 -7 -11 -8 -17 -3 -14 5 3 15 -1 22 -9 10 -12 9 -15 -6 -16 -11 0 -14 -3
-6 -6 15 -6 44 16 36 28 -9 15 3 10 16 -7 11 -12 11 -15 0 -12 -21 5 -24 -30
-3 -35 15 -4 14 -5 -4 -6 -12 0 -23 5 -26 12 -2 6 -4 -3 -3 -20 0 -21 6 -33
15 -33 11 0 11 3 0 17 -9 11 -10 14 -2 9 7 -4 17 -15 23 -26 8 -15 6 -17 -9
-13 -16 4 -19 1 -14 -16 4 -15 1 -21 -7 -19 -7 2 -15 -4 -17 -12 -4 -13 -3
-13 6 0 6 8 11 13 12 10 8 -44 12 -55 26 -65 10 -7 24 -11 33 -8 13 4 13 3 0
-5 -9 -7 -18 -8 -26 -1 -9 8 -11 5 -7 -10 3 -12 9 -19 13 -16 5 3 12 0 16 -6
4 -7 3 -9 -4 -5 -6 3 -13 2 -17 -4 -3 -5 1 -10 9 -10 20 0 29 -17 15 -26 -7
-4 -9 -3 -6 2 3 6 -3 10 -13 11 -23 2 -35 -13 -19 -23 8 -5 9 -3 4 6 -5 8 -3
11 6 8 8 -3 12 -12 10 -19 -2 -8 -4 -19 -5 -25 -1 -7 -8 -20 -16 -30 -14 -18
-14 -18 7 0 22 18 22 18 20 -3 -1 -12 -5 -21 -9 -21 -4 0 -8 -4 -8 -8 0 -5 7
-9 15 -9 8 0 12 4 9 9 -3 4 -1 8 5 8 5 0 8 -13 6 -29 -4 -35 17 -72 30 -51 6
9 4 11 -5 5 -9 -5 -11 -4 -6 3 4 7 3 12 -2 12 -5 0 -9 6 -9 14 0 8 6 12 13 9
8 -3 13 -8 12 -11 0 -4 0 -9 2 -12 1 -3 3 -15 6 -27 3 -17 0 -21 -11 -17 -8 4
-15 1 -15 -5 0 -6 5 -10 11 -8 6 1 14 -4 17 -12 3 -10 0 -11 -9 -5 -11 6 -10
3 1 -11 8 -11 10 -16 3 -11 -9 5 -12 -1 -9 -23 2 -21 0 -28 -10 -24 -9 3 -14
-2 -14 -12 0 -9 4 -14 8 -11 4 2 9 -5 9 -17 2 -17 0 -19 -7 -7 -8 12 -9 10 -7
-7 2 -11 9 -28 16 -37 12 -14 11 -16 -5 -9 -17 6 -17 5 -5 -10 7 -9 18 -14 25
-11 6 3 2 -2 -9 -12 -17 -14 -17 -16 -2 -11 9 4 17 2 17 -4 0 -6 6 -7 13 -3 7
5 6 0 -3 -11 -14 -17 -13 -18 2 -12 20 7 34 -8 17 -19 -8 -5 -9 -3 -4 7 5 8 4
10 0 6 -12 -10 -16 -39 -5 -32 5 3 15 -5 22 -17 17 -32 19 -50 4 -45 -7 3 -13
-1 -13 -9 0 -7 5 -11 10 -7 5 3 6 -3 2 -16 -5 -17 -3 -20 12 -14 15 6 16 5 3
-9 -8 -9 -19 -13 -24 -10 -5 3 -6 0 -2 -7 5 -7 15 -10 23 -7 14 6 14 4 0 -17
-12 -19 -13 -24 -2 -24 8 0 12 4 9 8 -2 4 -1 10 4 13 4 2 9 -4 9 -15 1 -10 -4
-19 -10 -19 -6 0 3 -10 20 -23 18 -12 33 -28 33 -34 0 -7 10 -13 21 -13 19 0
20 -2 8 -17 -10 -11 -10 -14 -1 -9 7 4 12 2 12 -5 0 -8 5 -8 17 2 10 7 15 10
11 5 -9 -11 21 -41 41 -41 10 0 16 -8 15 -22 -1 -13 3 -23 7 -23 5 0 9 8 9 18
0 14 2 14 9 3 5 -8 19 -16 31 -18 12 -2 19 1 15 6 -3 6 7 6 26 1 29 -9 31 -8
26 13 -6 20 -5 21 7 4 13 -16 14 -16 19 4 4 14 11 20 21 16 9 -4 15 -1 13 6
-1 7 3 11 10 10 7 -2 10 3 7 11 -3 8 -1 17 5 20 6 4 7 14 4 23 -5 12 -3 14 7
8 8 -5 11 -4 6 3 -3 5 0 13 6 16 7 3 2 3 -12 1 -24 -6 -24 -5 3 10 22 13 26
21 21 37 -5 16 -3 20 9 15 20 -8 43 18 26 29 -8 5 -9 3 -4 -6 6 -9 4 -11 -5
-5 -9 6 -11 4 -5 -5 5 -9 4 -11 -4 -6 -9 6 -9 11 0 22 9 11 16 11 33 2 20 -11
20 -10 6 7 -14 17 -13 18 7 13 13 -4 26 -1 30 4 3 7 1 8 -5 4 -7 -4 -12 -2
-12 4 0 6 -4 9 -9 5 -5 -3 -12 -1 -15 4 -3 4 4 8 16 7 15 -1 22 6 24 24 3 18
2 21 -5 10 -5 -8 -7 -18 -5 -22 9 -15 -3 -8 -17 9 -8 9 -9 14 -4 11 6 -4 15 5
22 18 6 13 7 22 2 18 -5 -3 -9 0 -9 5 0 6 -6 11 -14 11 -8 0 -12 9 -11 25 2
14 -2 28 -7 32 -6 3 -8 1 -5 -4 4 -6 0 -13 -8 -17 -9 -3 -15 1 -15 10 0 12 -6
15 -21 11 -17 -5 -18 -3 -8 9 10 12 10 15 -1 12 -8 -2 -16 6 -18 17 -4 18 -3
18 14 5 18 -14 18 -14 5 3 -10 13 -17 14 -27 6 -7 -6 -10 -17 -7 -25 3 -8 1
-14 -5 -14 -6 0 -9 8 -7 18 1 9 -2 23 -8 30 -7 9 -6 11 4 7 10 -4 15 2 16 15
1 11 -2 20 -8 20 -5 0 -9 5 -9 11 0 6 7 8 18 4 12 -4 11 -1 -5 15 -31 28 -29
34 5 13 15 -9 24 -13 20 -8 -4 4 -2 15 5 24 11 14 10 14 -5 2 -10 -7 -18 -9
-18 -3 0 14 26 33 34 24 4 -4 6 0 4 8 -2 9 3 14 11 12 12 -3 12 0 1 12 -10 13
-10 19 1 33 11 13 11 15 1 9 -9 -5 -13 -3 -11 5 3 29 -1 40 -13 33 -9 -5 -8
-2 1 10 8 9 19 15 26 12 6 -2 12 2 12 10 0 7 -5 10 -10 7 -6 -3 -7 -1 -3 5 4
7 1 12 -6 12 -7 0 1 8 17 18 21 13 31 28 33 47 3 35 10 44 22 25 6 -8 10 -10
10 -4 0 6 -9 18 -21 25 -20 14 -19 14 10 15 17 1 31 -3 31 -8 0 -5 -5 -6 -12
-2 -7 4 -8 3 -4 -5 5 -7 16 -9 29 -5 19 6 20 5 8 -10 -8 -9 -9 -16 -3 -16 6 0
15 8 21 18 8 13 9 9 7 -18 -2 -26 -7 -34 -19 -32 -10 2 -17 -2 -17 -7 0 -5 12
-11 27 -13 16 -2 27 -10 29 -21 1 -9 -2 -15 -7 -11 -5 3 -9 0 -9 -6 0 -7 -7
-9 -16 -6 -9 3 -12 2 -9 -5 4 -5 15 -7 25 -4 10 3 21 1 25 -5 3 -6 12 -7 18
-4 7 4 9 4 5 -1 -4 -4 0 -13 9 -20 13 -9 13 -14 3 -20 -9 -6 -11 -4 -5 6 7 11
5 11 -11 -1 -29 -22 -30 -24 -12 -17 9 3 19 1 22 -6 3 -9 5 -8 5 1 1 7 6 10
11 7 6 -3 10 -1 10 6 0 7 3 9 6 6 4 -4 1 -14 -7 -23 -13 -16 -12 -16 8 -6 19
11 21 9 18 -14 -1 -15 2 -23 9 -21 6 3 10 10 8 16 -1 7 2 10 8 6 7 -4 7 -12 0
-26 -12 -21 -1 -26 19 -6 10 10 12 9 9 -3 -2 -9 4 -14 14 -14 10 1 16 -2 13
-6 -3 -4 2 -13 9 -19 12 -10 13 -8 9 9 -4 15 2 29 21 46 14 14 26 20 26 13 0
-6 9 -9 20 -6 11 3 23 1 26 -4 3 -5 2 -9 -3 -8 -20 3 -31 -2 -37 -18 -6 -15
-5 -16 11 -1 10 8 28 14 40 13 15 -1 20 3 15 14 -3 9 -2 13 3 9 4 -4 14 -1 21
7 24 24 15 27 -15 6 -24 -17 -30 -18 -34 -6 -4 10 -1 12 10 8 12 -5 14 -3 8 7
-5 8 -4 11 1 7 6 -3 16 -2 24 3 8 5 19 5 26 -1 8 -6 10 -2 9 16 -4 29 12 44
21 21 3 -9 11 -13 18 -9 6 3 8 3 4 -2 -4 -4 0 -15 10 -23 12 -10 8 -9 -10 2
-40 24 -45 20 -12 -10 16 -15 23 -23 16 -20 -14 8 -12 -28 3 -41 4 -5 5 -1 0
7 -7 12 -6 13 6 2 12 -11 12 -14 -1 -22 -10 -7 -11 -10 -2 -10 6 0 12 -11 12
-24 0 -16 7 -26 22 -29 17 -5 19 -9 9 -20 -9 -12 -8 -16 4 -21 11 -4 14 -2 9
6 -4 7 -3 8 5 4 9 -6 9 -11 -1 -24 -11 -13 -11 -14 1 -7 11 6 13 4 8 -8 -7
-19 8 -32 19 -16 5 8 3 9 -6 4 -9 -5 -11 -4 -6 4 4 6 12 9 17 5 5 -3 7 -10 4
-15 -4 -5 0 -18 8 -30 11 -15 16 -17 20 -7 3 7 6 3 6 -9 1 -14 7 -23 17 -23
10 0 14 -5 10 -16 -3 -8 -2 -12 3 -9 5 3 12 1 16 -4 3 -6 13 -7 22 -4 11 4 14
3 9 -5 -4 -7 -3 -12 3 -12 5 0 12 6 15 13 4 8 5 7 5 -3 -2 -29 1 -40 12 -40 7
0 18 -8 26 -18 13 -15 13 -15 3 5 -9 19 -8 22 4 17 9 -3 18 -15 21 -25 5 -15
10 -17 20 -9 10 9 15 6 20 -11 6 -17 9 -19 17 -8 7 11 9 9 5 -7 -4 -18 0 -22
20 -19 18 2 27 -4 34 -22 5 -14 15 -23 21 -21 7 3 20 -5 29 -16 15 -18 19 -19
33 -6 10 7 16 9 15 4 -4 -21 2 -35 11 -29 6 4 8 12 4 18 -3 7 3 3 13 -9 10
-11 25 -18 32 -16 8 3 11 0 7 -6 -4 -6 2 -8 16 -4 14 3 19 1 14 -6 -5 -8 -2
-10 8 -6 9 3 14 9 11 13 -2 4 2 8 10 8 8 0 12 -4 9 -9 -3 -4 2 -8 11 -8 9 0
14 -4 11 -8 -2 -4 4 -8 14 -8 10 0 16 5 13 10 -4 5 1 7 11 3 10 -4 22 -7 27
-7 6 0 7 -6 3 -12 -6 -9 -3 -9 9 0 9 8 22 10 28 6 8 -5 9 -3 5 5 -5 7 -15 10
-23 7 -8 -3 -11 -1 -8 5 4 5 16 7 27 3 11 -3 18 -2 15 3 -3 5 8 8 24 7 24 -2
29 1 25 14 -5 14 -4 14 8 -1 10 -14 15 -15 19 -5 4 10 6 10 6 1 1 -7 6 -13 12
-13 5 0 8 4 5 9 -7 11 14 20 32 14 6 -3 9 -10 6 -16 -5 -9 -3 -8 6 0 10 9 18
9 34 1 19 -10 20 -10 7 6 -12 14 -12 16 2 11 8 -4 18 -2 21 4 9 14 38 2 29
-13 -3 -6 3 -3 15 8 12 10 30 16 41 13 14 -3 18 -1 14 9 -3 8 -10 11 -16 7 -5
-3 -7 -2 -4 4 3 5 20 8 36 7 17 -1 29 2 26 6 -3 5 7 8 22 7 18 -1 27 3 26 10
-2 9 4 10 23 3 22 -9 25 -8 21 5 -4 8 -3 14 1 13 4 -1 18 4 31 11 14 8 21 9
17 2 -4 -6 -2 -11 3 -11 6 0 11 8 11 18 0 14 2 15 10 2 8 -12 10 -11 10 7 0
16 5 20 23 17 12 -2 16 -2 10 2 -7 3 -13 10 -13 15 0 6 9 5 21 -2 17 -9 20 -8
14 2 -6 9 -3 10 10 5 15 -5 16 -4 6 8 -9 11 -9 16 0 22 8 5 9 3 4 -6 -5 -8 -3
-11 6 -8 8 3 12 12 11 19 -2 8 -1 11 3 7 10 -10 34 15 27 27 -3 6 2 4 11 -4
11 -9 17 -10 17 -2 0 6 7 11 15 11 9 0 12 6 8 17 -4 11 -3 14 5 9 7 -4 12 -2
12 4 0 6 5 8 13 4 9 -6 9 -4 -1 8 -10 13 -10 18 -1 24 8 5 10 3 5 -7 -4 -8 -1
-5 8 5 8 10 13 22 11 26 -3 4 4 15 15 25 11 10 17 21 14 26 -2 4 5 6 16 4 17
-3 19 -1 10 15 -9 17 -8 19 7 13 16 -6 16 -5 4 10 -12 15 -12 17 1 12 8 -3 21
2 29 11 9 12 10 15 2 10 -7 -4 -13 -2 -13 3 0 10 14 15 33 12 5 -1 6 3 2 9 -3
6 -12 7 -18 3 -7 -4 -6 1 2 11 8 9 20 15 28 12 10 -4 11 -1 3 14 -8 15 -6 22
9 32 11 8 17 22 15 36 -2 12 1 22 7 22 5 0 7 -5 4 -10 -3 -6 0 -10 9 -10 9 0
13 8 11 25 -2 22 0 23 13 13 14 -12 14 -10 2 12 -13 24 -12 24 6 10 10 -8 16
-10 12 -6 -4 5 -3 16 4 23 9 11 9 17 -3 24 -11 7 -10 9 6 10 11 1 22 1 25 1 3
0 4 15 2 35 -4 28 -2 34 9 28 8 -5 11 -5 7 0 -4 4 -2 15 4 23 15 17 20 44 7
36 -5 -3 -7 -9 -4 -14 3 -5 1 -11 -4 -14 -5 -4 -8 2 -6 11 2 10 4 24 4 31 1 7
5 11 9 8 13 -8 8 57 -5 72 -14 15 -9 52 9 64 10 6 10 8 1 8 -7 0 -13 5 -13 11
0 5 6 7 13 3 8 -5 8 -2 -2 9 -15 18 -26 23 -16 7 3 -5 1 -10 -4 -10 -15 0 -14
15 3 29 11 9 15 9 19 -1 4 -9 6 -9 6 -1 1 6 -4 15 -9 18 -7 4 -6 13 1 26 6 12
8 23 6 26 -3 2 -8 -5 -12 -16 -8 -26 -21 -27 -21 -2 0 11 5 17 10 14 5 -4 7 1
3 10 -4 12 -1 15 11 11 9 -3 7 1 -6 8 -12 8 -19 17 -16 21 12 11 26 8 18 -5
-4 -7 -3 -8 4 -4 21 13 13 26 -15 27 -17 1 -21 3 -10 6 19 5 24 24 5 21 -8 -2
-12 5 -10 16 2 10 0 16 -5 13 -5 -3 -9 3 -9 13 0 18 2 18 17 4 16 -14 17 -14
15 3 -2 10 -8 19 -14 19 -7 1 -18 2 -26 3 -8 0 -13 12 -13 27 0 17 2 22 8 13
4 -7 6 -16 4 -19 -2 -4 2 -7 10 -7 8 0 15 4 15 9 0 4 -5 8 -11 8 -6 0 -9 14
-7 32 2 21 -2 33 -12 35 -13 4 -13 3 0 -6 12 -8 11 -10 -6 -9 -11 1 -21 8 -21
15 0 6 3 11 6 9 3 -2 15 0 26 5 19 7 19 8 -3 8 -39 1 -51 21 -53 83 0 10 -7
18 -15 18 -9 0 -12 -5 -8 -12 4 -6 3 -8 -4 -5 -5 4 -9 18 -7 32 2 21 0 23 -12
13 -11 -9 -13 -8 -11 2 2 8 -2 14 -9 15 -13 0 -27 13 -29 26 -1 5 -2 14 -3 19
0 6 -5 10 -11 10 -5 0 -7 -6 -4 -14 3 -8 0 -17 -7 -22 -8 -5 -10 -3 -5 5 10
15 -23 53 -37 44 -6 -4 -7 -1 -3 6 6 9 13 8 27 -5 10 -9 19 -12 19 -7 0 6 -7
14 -16 17 -8 3 -13 9 -10 14 2 4 -4 8 -14 8 -10 0 -17 -3 -15 -6 2 -3 -6 -6
-18 -7 -12 0 -16 1 -9 4 6 3 10 9 6 14 -3 5 3 9 12 9 10 0 15 3 11 6 -3 4 -19
2 -34 -4 -25 -8 -29 -7 -30 10 -1 11 -10 26 -19 33 -15 11 -21 9 -36 -9 -18
-21 -18 -21 -8 6 10 31 -4 48 -23 29 -9 -9 -7 -11 8 -6 18 6 18 6 2 -5 -14 -9
-21 -7 -37 12 -19 22 -20 22 -35 4 -8 -10 -12 -23 -9 -27 3 -5 -2 -6 -10 -3
-9 3 -16 10 -16 16 0 5 -5 6 -12 2 -8 -5 -9 -2 -5 9 6 17 -4 21 -48 19 -18 -1
-18 0 3 10 29 15 29 30 -1 19 -17 -7 -24 -6 -24 4 0 8 7 11 16 7 14 -5 14 -4
1 10 -11 12 -17 13 -22 4 -8 -14 -75 -14 -69 0 1 5 7 8 12 6 5 -1 9 2 9 8 0
18 -18 10 -40 -17 -20 -26 -21 -20 -3 24 5 14 3 13 -14 -3 -11 -10 -18 -23
-15 -28 3 -5 0 -6 -6 -2 -5 3 -12 3 -15 -1 -4 -9 0 9 9 35 4 10 -3 6 -17 -10
-26 -30 -42 -31 -78 -6 -18 13 -29 14 -43 7 -10 -5 -18 -12 -18 -15 0 -3 4 -2
10 1 6 3 10 1 10 -5 0 -7 -7 -10 -15 -6 -8 3 -15 0 -15 -6 0 -6 -3 -9 -6 -6
-3 4 -1 16 6 27 14 28 3 27 -21 -2 -15 -18 -20 -19 -28 -8 -5 8 -7 20 -4 28 3
7 0 13 -7 13 -6 0 -8 -4 -5 -10 3 -5 2 -10 -4 -10 -6 0 -8 -6 -6 -13 3 -7 -4
-13 -20 -13 -14 -1 -23 1 -20 5 2 4 -2 8 -10 8 -12 0 -12 -4 2 -20 10 -11 12
-17 5 -13 -7 4 -20 2 -28 -5 -8 -6 -17 -9 -21 -6 -3 4 -11 0 -17 -9 -10 -13
-12 -13 -12 5 0 11 5 17 10 14 5 -3 6 -1 2 6 -4 6 -12 9 -17 5 -5 -3 -18 0
-27 7 -14 11 -13 10 1 -8 22 -25 15 -43 -14 -38 -11 2 -22 -2 -26 -10 -3 -8
-9 -15 -15 -15 -5 0 -7 3 -5 8 3 4 -1 13 -9 20 -9 8 -14 9 -14 2 0 -6 -4 -9
-8 -6 -5 3 -9 -1 -9 -9 0 -11 4 -12 14 -4 8 7 13 8 13 1 0 -13 -28 -24 -34
-13 -6 9 -37 8 -54 -3 -7 -4 -10 -11 -7 -16 3 -4 -2 -11 -10 -14 -9 -3 -18 1
-22 10 -5 13 -7 13 -14 2 -7 -10 -9 -9 -9 5 0 11 -5 17 -12 14 -18 -6 -48 11
-48 28 0 7 8 16 18 18 9 3 4 4 -11 3 -16 -1 -32 -9 -37 -16 -7 -11 -9 -9 -7 8
1 12 8 22 17 23 9 0 6 4 -7 9 -13 5 -23 15 -23 22 0 11 -2 11 -8 0 -7 -10 -14
-10 -38 3 -16 8 -22 15 -13 15 8 0 21 -6 28 -13 10 -10 11 -9 6 5 -4 10 -12
18 -17 18 -6 0 -4 8 3 18 13 16 12 16 -5 2 -10 -8 -24 -15 -32 -16 -17 -3 -48
41 -40 55 3 5 -3 7 -14 4 -12 -3 -20 0 -20 6 0 7 4 9 10 6 6 -3 7 1 3 10 -3
11 -8 13 -12 6 -7 -10 -48 -7 -60 4 -3 4 6 4 21 1 20 -3 25 -1 21 9 -2 8 -8
14 -11 13 -19 -2 -33 3 -28 11 3 5 -1 11 -9 15 -8 3 -19 -3 -24 -12 -6 -9 -10
-12 -11 -7 0 6 4 17 9 25 15 22 3 30 -27 19 -22 -8 -25 -8 -15 2 15 15 17 33
4 25 -5 -3 -14 1 -21 10 -7 8 -19 13 -26 10 -8 -3 -11 2 -9 14 3 13 -1 17 -11
13 -7 -3 -11 -10 -7 -16 3 -6 1 -7 -5 -3 -7 4 -12 14 -12 22 0 9 5 12 12 8 7
-4 8 -3 4 4 -4 6 -14 8 -23 5 -12 -5 -14 -3 -8 8 7 12 6 12 -7 1 -13 -10 -17
-10 -22 4 -3 9 -3 21 1 27 3 7 3 9 -1 6 -4 -4 -18 4 -32 18 -25 24 -32 39 -14
28 6 -3 10 -1 10 5 0 6 4 9 9 5 5 -3 13 0 17 6 4 7 3 9 -4 5 -6 -3 -13 -2 -17
4 -4 6 -11 7 -17 4 -6 -4 -8 -2 -4 4 3 6 16 9 27 7 17 -4 19 -2 9 10 -12 15
-3 21 25 15 6 -1 4 4 -3 11 -17 18 -15 34 3 19 13 -10 15 -9 15 11 0 19 2 21
10 9 8 -12 10 -10 10 9 0 21 2 22 17 10 12 -10 15 -10 9 -1 -8 14 18 45 29 34
5 -4 5 1 1 12 -4 13 -2 17 8 13 9 -4 17 2 21 14 4 10 11 17 16 14 5 -3 6 2 2
11 -4 12 -3 15 5 10 7 -4 13 -2 13 3 1 6 2 16 3 22 0 6 15 22 31 36 17 14 25
23 19 20 -6 -4 -11 0 -11 8 0 8 4 12 9 9 4 -3 8 0 8 6 0 6 5 8 10 5 6 -3 10
-2 10 3 0 6 -7 13 -16 16 -12 5 -14 10 -5 20 6 7 8 16 4 20 -4 4 1 4 12 1 19
-6 19 -6 3 8 -10 8 -18 22 -18 31 0 9 -5 16 -11 16 -5 0 -8 4 -5 8 3 5 -10 8
-28 7 -26 0 -32 3 -28 15 4 12 1 12 -15 -2 -11 -10 -24 -18 -29 -18 -5 0 -2 5
6 11 12 9 12 10 -3 5 -10 -3 -25 -6 -33 -6 -9 0 -12 -5 -8 -12 5 -7 0 -9 -14
-6 -19 5 -20 3 -12 -13 9 -15 8 -17 -6 -12 -12 4 -15 3 -10 -5 4 -7 -3 -17
-18 -24 -24 -10 -32 -26 -27 -52 1 -5 -6 -3 -15 5 -12 9 -15 9 -10 2 4 -8 2
-13 -6 -13 -10 0 -10 -2 1 -9 11 -7 11 -9 0 -14 -9 -4 -10 -6 -2 -6 7 -1 1
-12 -13 -26 -26 -26 -40 -33 -28 -13 4 6 3 8 -4 5 -5 -4 -8 -17 -5 -30 3 -14
2 -18 -4 -10 -6 8 -14 9 -23 3 -12 -8 -13 -10 -1 -10 9 0 7 -6 -7 -19 -12 -10
-22 -24 -22 -31 0 -7 -7 -10 -16 -6 -14 6 -15 4 -4 -9 11 -13 11 -16 -1 -13
-8 2 -13 -4 -13 -15 2 -17 1 -17 -17 -1 -18 17 -20 16 -34 -2 -13 -18 -14 -17
-9 9 4 27 -9 37 -22 15 -5 -7 -3 -8 6 -3 9 5 11 4 6 -4 -4 -6 -12 -9 -17 -5
-5 3 -7 10 -4 15 4 5 -3 9 -14 9 -13 0 -21 7 -21 18 -1 16 -1 16 -14 0 -7 -10
-17 -18 -22 -18 -4 0 -3 5 4 12 16 16 15 31 0 22 -9 -5 -9 -2 1 9 8 10 9 17 3
17 -6 0 -16 -8 -22 -17 -9 -14 -10 -14 -7 -2 7 24 -6 39 -36 41 -17 2 -23 6
-17 12 6 6 10 16 10 24 0 11 -3 12 -14 3 -11 -9 -16 -9 -22 0 -4 8 -3 9 4 5 7
-4 12 -2 12 3 0 6 -5 11 -11 11 -7 0 -18 8 -25 18 -13 16 -14 16 -8 0 3 -10 2
-18 -4 -18 -6 0 -9 8 -7 18 1 9 -1 22 -6 28 -5 7 -3 11 6 11 8 0 12 -4 10 -8
-3 -4 1 -9 9 -12 7 -3 13 0 13 6 -1 31 4 47 14 47 5 0 7 -5 3 -12 -4 -7 -3 -8
5 -4 6 4 9 18 7 32 -3 17 1 27 17 36 12 7 26 11 30 10 5 -1 6 2 3 7 -9 14 5
42 18 34 6 -3 3 3 -7 14 -14 16 -15 23 -6 29 8 5 10 3 4 -7 -8 -12 -6 -12 8 0
18 14 23 26 8 16 -5 -3 -12 -1 -16 5 -3 5 1 10 10 10 9 0 13 5 9 11 -4 8 1 9
17 5 13 -3 18 -3 12 0 -7 3 -13 13 -13 22 0 15 2 15 10 2 8 -12 10 -11 10 7 0
16 5 21 19 18 15 -3 19 1 16 16 -3 12 2 19 12 19 13 0 13 3 3 15 -7 9 -10 18
-6 22 3 3 6 1 6 -5 0 -7 4 -12 10 -12 5 0 9 6 7 13 -1 6 4 11 11 9 8 -1 11 2
7 8 -3 5 0 10 7 10 11 0 10 2 0 9 -10 6 -8 10 8 14 15 4 21 11 17 21 -4 10 -1
16 9 16 8 0 12 5 9 10 -4 6 -11 8 -16 5 -5 -3 -6 2 -2 11 5 13 3 15 -7 9 -9
-5 -11 -4 -6 4 4 6 11 9 16 6 5 -3 12 0 16 6 4 8 3 9 -4 5 -8 -4 -12 0 -12 11
0 15 -2 16 -10 3 -8 -12 -10 -9 -10 11 0 30 -21 43 -40 26 -10 -9 -11 -9 -6 1
5 7 1 12 -9 12 -10 0 -14 5 -10 13 4 6 0 5 -7 -5 -11 -13 -18 -14 -33 -5 -18
9 -18 9 -7 -5 10 -13 10 -18 1 -24 -8 -4 -9 -3 -5 4 8 14 -29 11 -41 -3 -5 -4
-2 -5 5 -1 6 4 12 4 12 0 0 -9 -72 -98 -82 -102 -5 -2 -5 -9 -1 -15 4 -7 -1
-6 -10 2 -10 8 -20 11 -24 7 -3 -3 -2 -6 4 -6 15 0 12 -28 -4 -34 -9 -4 -11
-1 -7 6 4 6 3 8 -4 4 -6 -3 -9 -15 -7 -26 3 -14 -1 -17 -12 -13 -10 4 -14 2
-10 -4 4 -6 -2 -13 -13 -16 -12 -3 -18 -11 -15 -19 3 -8 -1 -21 -10 -28 -12
-10 -13 -16 -4 -27 10 -11 9 -12 -5 -7 -12 5 -15 2 -9 -12 4 -12 3 -15 -5 -10
-8 5 -11 0 -9 -16 1 -15 -3 -23 -13 -22 -9 1 -16 -7 -16 -17 0 -10 5 -15 11
-11 6 4 3 0 -6 -9 -17 -15 -17 -17 -1 -34 15 -16 14 -16 -13 1 -24 15 -27 15
-17 3 10 -13 9 -19 -3 -29 -10 -9 -15 -9 -15 -1 0 6 5 11 11 11 6 0 4 7 -5 15
-8 9 -19 15 -23 14 -19 -3 -33 2 -33 12 0 8 4 8 13 1 9 -8 17 -8 27 0 13 8 12
9 -2 5 -19 -6 -42 15 -30 28 4 5 -1 5 -10 2 -21 -7 -23 3 -5 22 8 10 8 12 0 7
-6 -3 -16 2 -22 11 -6 10 -11 13 -11 8 0 -6 -8 -11 -19 -11 -11 0 -17 5 -14
13 3 7 9 10 14 7 15 -9 10 3 -8 17 -10 8 -14 9 -10 2 4 -6 3 -14 -2 -17 -5 -4
-8 2 -6 11 1 10 10 17 19 17 16 -2 16 -1 0 17 -16 18 -16 20 0 38 13 14 14 21
5 27 -8 5 -10 3 -4 -6 5 -9 4 -11 -4 -6 -9 6 -9 11 1 23 15 18 20 45 7 37 -5
-3 -9 0 -9 5 0 6 5 11 11 11 8 0 7 6 -2 17 -12 14 -12 16 0 8 11 -6 13 -4 8 8
-4 10 -1 17 6 18 7 0 3 4 -8 9 -19 8 -18 9 4 9 24 1 24 1 5 16 -13 11 -14 13
-3 9 13 -4 16 1 14 20 -2 15 1 24 6 20 5 -3 7 -9 4 -14 -3 -5 -1 -11 4 -15 6
-3 8 6 5 21 -3 17 -1 23 7 19 8 -5 9 -1 4 14 -4 14 -2 23 9 27 12 5 13 11 6
25 -9 15 -8 17 6 12 11 -4 15 -2 11 4 -4 6 -1 14 5 17 7 4 3 4 -10 2 -19 -4
-21 -2 -11 10 6 7 15 12 19 9 5 -3 12 0 16 6 4 8 3 9 -4 5 -16 -10 -15 7 1 23
6 8 7 11 2 8 -6 -3 -12 4 -12 16 -2 17 0 19 7 7 8 -13 11 -13 22 -1 10 10 10
12 1 7 -7 -4 -13 -2 -13 3 0 6 6 11 13 11 8 0 7 3 -3 9 -8 6 -19 7 -25 3 -5
-3 -4 1 2 10 7 8 9 19 5 23 -4 5 -2 5 5 1 6 -3 15 -1 19 5 4 8 3 9 -4 5 -7 -4
-12 -2 -12 4 0 6 -5 8 -10 5 -14 -8 -13 8 1 22 9 9 7 10 -10 6 -20 -5 -26 4
-22 30 1 5 -3 6 -9 2 -5 -3 -10 -1 -10 6 0 7 -3 9 -6 6 -4 -4 -1 -14 7 -23 13
-16 12 -16 -11 -4 -14 7 -26 11 -27 9 -1 -2 -5 0 -10 5 -4 5 -3 6 4 2 6 -3 14
-2 17 3 4 5 -2 8 -11 6 -10 -1 -17 -9 -17 -17 1 -11 -5 -14 -19 -10 -14 3 -18
1 -13 -6 4 -7 1 -12 -9 -12 -9 0 -13 -4 -10 -10 4 -6 -1 -7 -11 -3 -12 4 -15
3 -10 -5 4 -7 1 -12 -6 -13 -7 0 -4 -4 7 -9 18 -8 19 -9 1 -9 -12 -1 -16 -6
-12 -17 4 -10 2 -13 -6 -8 -8 5 -9 2 -5 -9 3 -9 1 -19 -4 -23 -6 -3 -9 -14 -6
-24 3 -14 1 -17 -11 -13 -11 5 -13 3 -7 -8 14 -22 13 -46 -2 -46 -16 0 -17 9
-3 25 7 9 7 9 -2 2 -7 -6 -13 -25 -15 -43 -3 -45 -8 -65 -18 -74 -4 -4 -5 -2
-1 5 4 6 2 12 -5 12 -6 0 -9 -8 -6 -20 3 -11 1 -23 -4 -26 -5 -3 -9 2 -9 11 0
9 -4 13 -10 10 -6 -3 -10 -2 -10 4 0 5 -15 8 -34 7 -23 -2 -33 1 -30 9 3 6 -1
12 -9 12 -9 0 -12 -7 -9 -21 5 -18 4 -18 -10 -5 -9 7 -13 19 -10 24 3 6 1 6
-4 2 -9 -9 -10 -13 -13 -42 0 -8 -7 -12 -15 -9 -20 8 -30 -14 -14 -33 9 -12 9
-15 1 -9 -9 5 -13 0 -13 -14 0 -12 -4 -18 -10 -15 -7 4 -7 -3 0 -20 7 -20 7
-32 -3 -46 -8 -10 -17 -16 -22 -11 -5 4 -5 1 -1 -6 6 -10 11 -10 21 -2 11 9
12 7 8 -9 -3 -12 -12 -21 -19 -21 -8 0 -14 -5 -14 -11 0 -6 8 -8 18 -5 16 6
16 5 0 -7 -15 -12 -15 -14 0 -25 9 -7 11 -10 5 -7 -7 3 -21 1 -30 -5 -15 -10
-16 -11 -1 -6 9 2 19 -1 22 -9 3 -9 0 -12 -8 -9 -8 3 -17 0 -22 -7 -4 -7 -3
-10 3 -6 6 4 14 0 17 -9 4 -11 2 -15 -7 -11 -16 6 -18 -54 -2 -65 6 -5 6 -8
-2 -8 -7 0 -13 -7 -13 -15 0 -8 5 -15 11 -15 5 0 7 -5 4 -10 -4 -6 -10 -8 -15
-5 -10 6 -8 -15 3 -32 6 -9 3 -11 -9 -6 -10 4 -22 0 -29 -11 -8 -11 -15 -13
-20 -7 -3 6 -1 11 6 11 9 0 9 3 0 14 -9 10 -9 20 -3 33 14 26 14 30 -3 63 -13
26 -13 29 0 24 8 -3 13 -10 10 -14 -3 -5 0 -12 6 -16 8 -4 9 -3 5 4 -4 7 -1
12 6 12 10 0 10 2 -1 9 -11 7 -11 9 0 13 9 3 8 6 -5 11 -11 5 -15 3 -10 -5 5
-7 3 -8 -5 -4 -7 5 -10 10 -7 13 3 3 1 15 -5 27 -9 19 -9 20 4 3 13 -16 15
-16 21 -2 3 9 2 13 -4 10 -6 -3 -13 1 -16 9 -3 9 -10 14 -14 11 -4 -3 -13 2
-20 10 -7 8 -9 15 -5 15 4 0 1 8 -6 17 -10 11 -10 14 -1 9 7 -4 12 -2 12 4 0
6 5 8 11 4 8 -5 8 -1 0 14 -8 15 -8 22 2 25 9 4 9 6 -1 6 -8 1 -10 6 -6 14 6
9 4 9 -7 0 -20 -19 -34 -16 -18 4 12 14 12 16 -1 11 -11 -4 -16 1 -18 18 -1
13 3 24 8 24 5 0 7 -8 4 -17 -5 -15 -4 -16 5 -3 14 21 -4 37 -24 20 -8 -7 -16
-10 -16 -6 -1 3 -2 9 -3 14 -1 4 -5 12 -9 19 -10 16 5 24 23 12 13 -7 13 -9 1
-9 -8 0 -12 -3 -8 -6 3 -3 10 -3 16 0 6 4 2 19 -10 40 -13 22 -16 37 -9 41 5
3 10 11 10 17 0 6 -7 5 -17 -3 -9 -8 -14 -9 -10 -3 4 7 1 14 -7 17 -8 3 -13
14 -12 24 2 10 -2 22 -8 26 -7 6 -6 7 4 4 8 -2 15 -13 14 -24 -1 -11 5 -20 12
-20 10 0 11 4 3 14 -6 7 -8 13 -4 13 4 0 3 6 -3 13 -5 7 -6 21 -1 32 11 28 11
35 -2 35 -5 0 -8 -4 -5 -8 3 -5 -1 -9 -7 -9 -7 0 -14 10 -15 21 -1 17 1 18 8
6 8 -12 10 -10 10 8 0 15 4 21 12 16 7 -4 8 -3 4 4 -5 9 -15 7 -34 -4 -16 -10
-20 -11 -10 -2 12 10 13 19 7 31 -6 9 -7 17 -3 17 3 0 0 7 -7 17 -11 13 -11
17 -1 20 6 3 12 11 12 19 0 9 5 12 11 9 7 -5 4 -14 -7 -26 -11 -12 -13 -19 -5
-19 6 0 11 -7 9 -16 -2 -10 4 -19 12 -21 9 -3 11 -1 5 4 -12 9 -13 43 -2 60 4
6 3 14 -1 17 -5 3 -8 15 -7 28 1 13 -2 26 -8 29 -6 5 -6 18 1 39 10 27 9 31
-3 26 -8 -3 -17 0 -21 6 -4 7 -3 8 4 4 8 -5 12 0 12 13 0 10 -3 21 -7 24 -5 2
-3 3 3 1 6 -1 17 2 25 7 8 5 9 9 4 9 -6 0 -11 9 -12 20 -1 11 2 18 8 15 5 -4
9 -1 9 4 0 16 -11 13 -33 -6 -19 -17 -19 -17 -8 5 6 12 15 31 21 42 6 12 6 21
0 25 -6 4 -8 10 -5 15 3 5 1 11 -5 15 -6 4 -8 10 -5 15 3 5 0 12 -6 16 -8 4
-9 3 -5 -4 4 -7 1 -12 -6 -12 -9 -1 -8 -4 3 -13 15 -11 15 -14 1 -27 -14 -13
-15 -12 -9 3 3 9 2 17 -2 17 -5 0 -9 10 -10 23 -2 49 -6 65 -14 60 -5 -3 -7 0
-5 8 3 8 11 13 17 11 17 -3 13 15 -5 22 -23 9 -31 7 -15 -3 8 -5 9 -11 3 -15
-5 -3 -15 1 -22 9 -10 12 -9 16 4 21 14 5 14 8 0 21 -11 11 -12 19 -4 28 11
13 8 13 -29 6 -2 -1 1 -7 7 -14 12 -14 11 -35 -1 -54 -5 -8 -3 -13 7 -13 9 0
23 -14 31 -31 16 -30 16 -30 -4 -20 -11 6 -18 17 -15 25 3 8 -4 16 -18 19 -17
5 -20 9 -11 18 9 9 7 16 -10 31 -13 11 -16 17 -7 16 8 -2 14 2 15 7 0 6 4 16
8 23 5 6 5 18 1 25 -5 9 -4 9 6 0 15 -14 50 0 50 20 0 7 -4 6 -10 -3 -5 -8
-10 -10 -10 -5 0 6 -5 3 -10 -5 -8 -13 -10 -13 -10 1 0 9 7 20 16 23 9 3 14
12 11 19 -6 16 8 42 23 42 6 0 14 6 19 13 7 11 9 10 14 -3 5 -10 3 -14 -5 -9
-7 5 -8 3 -3 -5 5 -9 13 -7 29 8 12 12 26 18 31 14 4 -5 3 2 -4 14 -11 22 -1
27 25 11 6 -4 11 -1 11 7 0 8 -3 14 -6 13 -19 -2 -28 4 -28 17 0 11 3 12 14 3
10 -8 13 -8 11 0 -2 6 6 17 17 26 20 15 20 15 -2 13 -13 -1 -23 -5 -23 -9 0
-4 -5 -8 -12 -8 -20 0 14 29 39 33 12 2 26 7 30 12 5 4 2 5 -4 1 -8 -4 -13 -2
-13 6 0 10 -2 10 -9 -1 -7 -10 -9 -6 -8 13 2 19 5 23 12 14 6 -7 16 -14 24
-16 12 -3 12 0 2 12 -8 10 -9 16 -1 21 6 3 8 10 5 15 -9 14 16 23 28 11 9 -9
8 -11 -5 -6 -14 5 -16 2 -13 -15 2 -13 7 -25 11 -29 4 -3 5 2 1 11 -3 10 0 19
9 22 12 5 13 10 3 27 -8 16 -8 20 1 14 7 -4 13 1 17 14 3 11 10 18 16 14 6 -3
7 -1 3 5 -4 7 -2 12 3 12 6 0 11 5 11 11 0 5 -4 7 -10 4 -5 -3 -10 -2 -10 2 0
19 40 34 63 23 19 -10 19 -9 -3 9 -23 18 -11 25 16 9 6 -4 11 -1 11 7 0 8 -4
12 -9 9 -4 -3 -8 0 -8 6 0 6 -4 8 -10 5 -6 -3 -7 1 -3 10 4 12 8 13 13 5 5 -8
9 -7 13 4 3 8 1 17 -6 20 -7 3 0 3 15 1 15 -2 31 1 34 7 4 7 2 8 -4 4 -7 -4
-12 -2 -12 4 0 6 -4 9 -8 6 -5 -3 -8 5 -7 16 2 24 19 35 30 19 3 -7 0 -8 -10
-5 -11 5 -14 2 -9 -10 12 -32 36 -9 26 26 -2 10 -9 15 -16 11 -7 -4 -6 -1 1 9
7 8 9 19 5 23 -4 5 -2 5 5 1 6 -3 14 -2 18 4 3 5 -3 10 -14 10 -12 0 -21 4
-21 10 0 5 6 7 13 4 8 -3 14 2 14 10 0 8 -4 13 -9 10 -10 -6 1 26 16 45 9 12
8 12 -10 3 -15 -8 -21 -8 -22 1 -3 31 -9 47 -18 45 -5 -2 -8 -7 -6 -11 1 -5
-2 -6 -8 -2 -8 5 -7 11 1 21 8 10 15 12 23 4 5 -5 15 -10 21 -10 5 0 4 4 -4 9
-12 8 -12 12 -2 25 9 11 10 16 2 16 -6 0 -11 -4 -11 -10 0 -5 -5 -10 -11 -10
-5 0 -8 4 -4 9 3 5 -2 16 -10 24 -21 22 -19 34 3 14 16 -15 18 -15 18 3 0 10
-3 17 -7 14 -4 -2 -14 2 -22 10 -8 8 -18 12 -23 8 -5 -4 -2 1 5 11 14 18 26
24 16 8 -9 -15 15 -25 28 -12 9 9 7 10 -8 5 -11 -4 -17 -4 -13 1 4 4 2 15 -5
23 -10 13 -9 15 5 9 10 -3 20 -2 23 4 4 5 3 9 -2 8 -24 -4 -30 4 -29 38 1 28
-3 37 -17 39 -11 1 -22 6 -25 10 -4 4 1 4 10 1 10 -3 20 -2 23 2 7 12 -24 23
-37 14 -7 -3 -8 -1 -4 6 4 7 17 9 29 6 20 -5 19 -4 -3 10 l-25 16 28 -6 c38
-8 34 2 -5 14 -26 7 -28 9 -10 10 13 1 20 5 17 11 -4 6 -11 8 -16 4 -5 -3 -9
-2 -8 3 3 20 -2 34 -11 28 -6 -4 -10 -3 -9 2 4 24 -2 35 -17 29 -13 -5 -14 -3
-7 6 5 7 8 19 7 26 -1 6 -2 17 -3 24 -1 9 -4 9 -13 0 -7 -7 -17 -12 -22 -12
-6 0 -4 5 4 10 13 9 13 10 0 10 -13 0 -13 1 0 10 12 8 12 10 1 10 -10 0 -11 3
-2 14 8 10 9 16 1 21 -6 4 -9 1 -8 -7 2 -7 -4 -11 -12 -9 -8 2 -21 4 -28 4 -6
0 -10 2 -7 5 2 2 -5 12 -17 22 -17 13 -18 17 -5 17 9 0 13 -5 10 -11 -4 -6 1
-5 10 2 9 8 22 10 28 6 8 -4 9 -3 5 5 -4 6 -13 11 -19 10 -27 -3 -47 2 -47 12
0 5 4 7 10 4 6 -3 7 1 4 9 -3 9 -10 16 -16 16 -5 0 -7 -4 -4 -8 2 -4 1 -14 -4
-22 -6 -10 -8 3 -7 37 3 46 1 51 -14 42 -22 -12 -32 -12 -24 0 3 5 1 12 -4 15
-5 3 -7 16 -4 29 4 18 3 19 -6 7 -9 -13 -11 -13 -11 3 0 9 5 17 12 17 21 0 -1
13 -24 14 -24 1 -32 25 -13 39 5 5 0 6 -11 2 -23 -6 -58 20 -49 36 4 5 8 9 11
9 3 0 3 -4 0 -9 -3 -5 1 -14 8 -20 10 -9 16 -9 21 -1 4 6 1 9 -6 8 -12 -3 -14
1 -18 35 -1 8 -4 9 -9 1 -4 -6 -16 -14 -27 -18 -16 -6 -18 -5 -7 5 14 15 16
33 2 24 -6 -3 -10 -1 -10 5 0 6 -4 8 -10 5 -5 -3 -10 1 -10 10 0 12 4 13 18 6
14 -7 19 -6 19 3 0 13 -25 15 -45 2 -7 -4 -12 -4 -11 1 3 20 -2 32 -13 29 -7
-1 -10 -1 -6 1 5 3 3 13 -2 23 -7 13 -6 20 3 24 6 3 -1 3 -16 1 -25 -4 -27 -2
-15 12 9 12 9 15 1 9 -8 -4 -13 -2 -13 4 0 6 -5 8 -12 4 -9 -5 -9 -2 1 9 10
13 11 20 2 30 -6 8 -7 18 -3 23 4 4 -2 2 -12 -6 -18 -14 -19 -14 -8 7 16 30
15 41 -2 17 -8 -10 -18 -16 -22 -11 -4 4 -2 7 4 7 7 0 12 6 12 14 0 9 -7 13
-20 11 -11 -2 -19 -1 -19 3 3 21 -2 32 -13 26 -6 -4 -8 -3 -4 4 3 6 2 13 -3
16 -5 3 -7 16 -3 28 4 15 2 19 -7 13 -10 -6 -11 -3 -2 12 7 14 7 23 -1 31 -8
8 -7 16 3 29 13 17 13 17 -4 4 -10 -8 -16 -20 -13 -27 3 -7 2 -16 -3 -18 -4
-3 -7 8 -7 24 0 16 5 31 12 34 10 4 10 10 1 30 -6 13 -16 22 -22 19 -5 -2 -1
3 10 12 20 17 20 17 -4 10 -19 -6 -23 -4 -18 8 4 12 2 14 -10 10 -12 -5 -14
-3 -8 8 8 12 6 12 -8 0 -15 -12 -17 -12 -10 4 5 14 3 17 -10 12 -11 -4 -14 -2
-11 7 3 7 -2 20 -10 29 -19 18 -21 31 -4 21 7 -4 8 -3 4 5 -4 6 -12 9 -17 6
-5 -4 -9 -1 -9 5 0 6 -4 9 -9 5 -5 -3 -13 0 -17 6 -4 8 -3 9 4 5 7 -4 12 -2
12 3 0 6 -5 11 -11 11 -5 0 -7 5 -4 10 3 6 -4 10 -16 10 -22 0 -22 0 -3 15 18
13 18 14 -5 8 -22 -6 -23 -5 -10 18 12 23 11 23 -6 9 -17 -14 -18 -13 -12 3 5
13 2 17 -10 15 -9 -2 -18 3 -20 10 -3 8 2 10 14 6 17 -5 17 -5 -1 6 -15 10
-20 9 -27 -1 -7 -11 -9 -11 -9 3 0 9 6 19 13 21 6 3 2 6 -10 6 -14 1 -23 7
-23 16 0 9 -8 19 -17 22 -10 4 -30 19 -45 35 -16 15 -28 24 -28 18 0 -5 5 -12
10 -15 6 -3 10 -12 9 -18 0 -9 -2 -8 -6 1 -2 6 -10 9 -16 5 -7 -3 -9 -3 -5 2
12 13 -11 45 -27 39 -8 -4 -15 -2 -15 3 0 18 -46 33 -60 20 -10 -9 -11 -9 -6
1 4 6 2 12 -4 12 -6 0 -9 4 -6 8 2 4 -4 8 -14 8 -15 0 -17 -3 -7 -15 7 -8 0
-6 -15 4 -15 11 -29 27 -31 35 -4 11 -5 11 -6 -2 0 -10 -6 -18 -12 -18 -6 0
-9 6 -6 14 4 10 -1 12 -16 9 -18 -4 -19 -3 -7 6 8 6 10 11 4 11 -6 0 -14 -3
-18 -7 -14 -15 -37 -10 -51 10 -8 12 -15 16 -15 9 0 -10 -5 -9 -16 3 -14 13
-19 14 -25 3 -7 -11 -9 -11 -9 0 0 8 -5 10 -12 6 -9 -6 -9 -3 0 9 12 15 11 15
-17 7 -26 -7 -31 -6 -31 9 0 14 -6 18 -30 15 -16 -2 -30 0 -30 5 0 17 -30 20
-45 5 -13 -14 -15 -14 -16 3 0 10 -3 13 -6 5 -2 -6 -10 -9 -16 -5 -21 13 -62
9 -75 -7 -12 -13 -13 -13 -8 4 6 18 5 18 -20 1 -15 -9 -24 -13 -21 -7 4 5 -7
8 -26 7 -47 -4 -49 -4 -43 -13 3 -5 -9 -8 -27 -7 -18 1 -31 6 -30 12 1 5 -6 9
-15 9 -9 1 -26 5 -36 9 -15 6 -17 5 -11 -5 5 -9 4 -11 -4 -6 -6 4 -18 2 -26
-4 -8 -7 -15 -9 -15 -6 0 11 27 36 32 31 3 -3 5 2 5 10 0 8 -4 15 -8 15 -4 0
-9 -7 -13 -15 -3 -8 -10 -15 -16 -15 -6 0 -8 5 -5 10 3 6 1 10 -5 10 -6 0 -10
-6 -9 -12 3 -23 -1 -38 -10 -38 -4 0 -8 10 -7 23 1 13 -4 21 -11 20 -7 -2 -18
-4 -25 -5 -7 -2 -12 2 -13 9 0 6 -3 14 -7 17 -5 3 -6 3 -3 -1z m510 -53 c-3
-5 -1 -10 6 -10 7 0 10 -3 6 -6 -9 -9 -28 6 -22 17 4 5 8 9 11 9 3 0 2 -4 -1
-10z m-195 -4 c0 -2 -8 -10 -17 -17 -16 -13 -17 -12 -4 4 13 16 21 21 21 13z
m-763 -138 c-3 -8 -6 -5 -6 6 -1 11 2 17 5 13 3 -3 4 -12 1 -19z m1403 -13 c0
-2 -6 -5 -13 -8 -8 -3 -14 1 -14 8 0 7 6 11 14 8 7 -3 13 -6 13 -8z m-1565
-83 c-3 -3 -11 0 -18 7 -9 10 -8 11 6 5 10 -3 15 -9 12 -12z m-78 -64 c-3 -8
-6 -5 -6 6 -1 11 2 17 5 13 3 -3 4 -12 1 -19z m-77 -58 c0 -5 -5 -10 -11 -10
-5 0 -7 5 -4 10 3 6 8 10 11 10 2 0 4 -4 4 -10z m-44 -52 c4 -7 3 -8 -4 -4 -7
4 -12 2 -12 -5 0 -7 -3 -10 -6 -6 -6 5 3 27 11 27 2 0 7 -5 11 -12z m-176
-172 c0 -2 -7 -7 -16 -10 -8 -3 -12 -2 -9 4 6 10 25 14 25 6z m-58 -213 c-6
-2 -9 -10 -6 -15 4 -7 2 -8 -5 -4 -13 9 -5 26 12 25 9 0 8 -2 -1 -6z m-5 -59
c-3 -3 -12 -4 -19 -1 -8 3 -5 6 6 6 11 1 17 -2 13 -5z m2553 -24 c0 -5 -2 -10
-4 -10 -3 0 -8 5 -11 10 -3 6 -1 10 4 10 6 0 11 -4 11 -10z m40 -74 c0 -3 -4
-8 -10 -11 -5 -3 -10 -1 -10 4 0 6 5 11 10 11 6 0 10 -2 10 -4z m-2576 -185
c3 -5 -1 -11 -9 -14 -9 -4 -12 -1 -8 9 6 16 10 17 17 5z m2751 -41 c3 -6 -1
-7 -9 -4 -18 7 -21 14 -7 14 6 0 13 -4 16 -10z m212 -285 c0 -8 -4 -15 -9 -15
-10 0 -11 14 -1 23 9 10 10 9 10 -8z m-2944 -32 c-7 -2 -19 -2 -25 0 -7 3 -2
5 12 5 14 0 19 -2 13 -5z m-8 -22 c3 -5 2 -12 -3 -15 -5 -3 -9 1 -9 9 0 17 3
19 12 6z m3031 -166 c1 -14 -3 -25 -8 -25 -6 0 -4 -8 3 -17 13 -16 12 -17 -4
-4 -13 10 -15 17 -6 27 11 13 6 18 -13 15 -16 -2 -7 18 10 22 9 3 17 5 17 6 0
0 1 -10 1 -24z m-2981 -83 c-3 -3 -11 0 -18 7 -9 10 -8 11 6 5 10 -3 15 -9 12
-12z m259 -647 c-4 -8 -8 -15 -10 -15 -2 0 -4 7 -4 15 0 8 4 15 10 15 5 0 7
-7 4 -15z m2496 -130 c0 -2 -6 -8 -13 -14 -10 -8 -14 -7 -14 2 0 8 6 14 14 14
7 0 13 -1 13 -2z m-109 -72 c13 -16 12 -17 -3 -4 -17 13 -22 21 -14 21 2 0 10
-8 17 -17z m-21 -23 c0 -5 -5 -10 -11 -10 -5 0 -7 5 -4 10 3 6 8 10 11 10 2 0
4 -4 4 -10z m-30 -56 c-11 -18 -11 -18 -6 0 4 10 1 26 -6 35 -11 14 -10 14 6
0 15 -14 16 -20 6 -35z m-1919 -171 c10 -11 10 -14 2 -9 -8 4 -13 2 -13 -6 0
-10 -3 -9 -9 2 -6 8 -7 18 -5 22 7 11 10 10 25 -9z m2046 -68 c-15 -16 -19
-13 -11 9 3 9 10 13 15 10 5 -3 3 -11 -4 -19z m-1838 -81 c4 3 8 -1 8 -8 0 -8
-7 -13 -16 -11 -9 1 -15 5 -13 8 1 4 2 13 3 20 0 9 2 9 6 -1 2 -6 8 -10 12 -8z
m1848 2 c0 -8 -6 -12 -15 -9 -11 5 -11 7 0 14 7 5 13 9 14 9 0 0 1 -6 1 -14z
m-1805 -58 c-8 -8 -9 -4 -5 13 4 13 8 18 11 10 2 -7 -1 -18 -6 -23z m68 -102
c-7 -7 -13 -7 -20 0 -6 6 -3 10 10 10 13 0 16 -4 10 -10z m1739 -9 c0 -8 -2
-8 -6 1 -4 10 -8 10 -21 0 -15 -12 -16 -11 -3 4 14 19 32 15 30 -5z m-1685
-163 c5 -14 4 -15 -9 -4 -17 14 -19 20 -6 20 5 0 12 -7 15 -16z m2844 -199
c-3 -3 -9 2 -12 12 -6 14 -5 15 5 6 7 -7 10 -15 7 -18z m-2668 -19 c0 -2 -7
-7 -16 -10 -8 -3 -12 -2 -9 4 6 10 25 14 25 6z m1610 -135 c0 -4 -6 -8 -13 -8
-8 0 -14 6 -14 13 0 7 6 10 14 7 7 -3 13 -8 13 -12z m554 -159 c2 -4 -7 -8
-22 -9 -24 -2 -24 -1 -7 7 11 5 21 9 22 9 1 1 4 -3 7 -7z m-519 -42 c3 -6 -1
-7 -9 -4 -18 7 -21 14 -7 14 6 0 13 -4 16 -10z m-1162 -62 c4 -10 8 -9 16 2 8
12 10 11 8 -7 -1 -17 -5 -20 -19 -12 -21 11 -33 29 -19 29 5 0 12 -6 14 -12z
m1747 8 c0 -2 -7 -7 -16 -10 -8 -3 -12 -2 -9 4 6 10 25 14 25 6z m-535 -46 c3
-5 1 -10 -4 -10 -6 0 -11 5 -11 10 0 6 2 10 4 10 3 0 8 -4 11 -10z m-1013 -89
c-1 -7 7 -10 23 -7 14 3 25 1 25 -4 0 -5 -12 -8 -27 -7 -16 1 -26 6 -25 11 2
5 -2 13 -10 18 -10 8 -10 9 2 5 8 -2 14 -10 12 -16z m822 -32 c-3 -5 -10 -7
-15 -3 -5 3 -7 10 -3 15 3 5 10 7 15 3 5 -3 7 -10 3 -15z m136 6 c0 -2 -10
-10 -22 -16 -21 -11 -22 -11 -9 4 13 16 31 23 31 12z m-176 -19 c-8 -20 -31
-27 -31 -10 0 7 4 11 8 8 4 -2 10 0 14 6 9 15 15 12 9 -4z m-489 -66 c3 -5 1
-10 -4 -10 -6 0 -11 5 -11 10 0 6 2 10 4 10 3 0 8 -4 11 -10z m300 0 c3 -5 2
-10 -4 -10 -5 0 -13 5 -16 10 -3 6 -2 10 4 10 5 0 13 -4 16 -10z m-330 -10 c3
-6 -1 -7 -9 -4 -18 7 -21 14 -7 14 6 0 13 -4 16 -10z m55 -9 c0 -14 -29 -21
-36 -9 -4 6 -3 8 4 4 6 -3 13 -2 17 4 8 12 15 13 15 1z m46 -17 c1 -9 0 -13
-4 -10 -3 4 -7 14 -8 22 -1 9 0 13 4 10 3 -4 7 -14 8 -22z m590 -109 c-1 -8
-5 -17 -8 -21 -5 -4 -4 16 1 34 3 9 9 -1 7 -13z m1244 -157 c0 -4 -5 -8 -12
-8 -6 0 -8 3 -5 6 3 4 2 16 -4 28 -10 20 -10 20 5 2 9 -11 16 -23 16 -28z
m135 -107 c-3 -3 -10 1 -15 9 -8 13 -10 13 -10 1 0 -8 -3 -12 -6 -8 -3 3 -3
11 1 17 5 8 11 8 21 -1 8 -6 12 -14 9 -18z m50 -21 c-3 -5 -12 -10 -18 -10 -7
0 -6 4 3 10 19 12 23 12 15 0z m113 -135 c-3 -3 -9 2 -12 12 -6 14 -5 15 5 6
7 -7 10 -15 7 -18z m751 -59 c9 -10 8 -15 -2 -19 -8 -3 -13 3 -13 14 0 23 0
23 15 5z m-614 -16 c3 -5 1 -10 -4 -10 -6 0 -11 5 -11 10 0 6 2 10 4 10 3 0 8
-4 11 -10z m430 -40 c-3 -5 -12 -10 -18 -10 -7 0 -6 4 3 10 19 12 23 12 15 0z
m485 -20 c0 -5 -7 -7 -15 -4 -8 4 -15 8 -15 10 0 2 7 4 15 4 8 0 15 -4 15 -10z
m96 -1 c3 -6 2 -15 -4 -21 -6 -6 -12 -6 -17 3 -5 8 -4 10 3 5 7 -4 12 -3 12 3
0 5 -6 12 -12 14 -10 4 -10 6 -1 6 6 1 15 -4 19 -10z m-803 -26 c-4 -10 -9
-10 -18 -3 -6 5 -16 6 -20 2 -5 -4 -6 -2 -2 3 8 16 46 13 40 -2z m900 -16 c3
-8 0 -14 -7 -14 -7 0 -13 6 -13 14 0 7 4 13 8 13 4 0 9 -6 12 -13z m-928 -7
c-3 -5 -12 -10 -18 -10 -7 0 -6 4 3 10 19 12 23 12 15 0z m-1755 -310 c0 -5
-5 -10 -11 -10 -5 0 -7 5 -4 10 3 6 8 10 11 10 2 0 4 -4 4 -10z m15 -58 c-3
-3 -11 0 -18 7 -9 10 -8 11 6 5 10 -3 15 -9 12 -12z m3 -19 c-1 -5 3 -18 10
-30 9 -16 9 -24 0 -29 -6 -4 -8 -3 -5 3 4 6 0 19 -8 29 -17 23 -19 34 -5 34 6
0 9 -3 8 -7z m3017 -292 c3 -5 0 -13 -6 -17 -7 -4 -9 -3 -5 4 3 5 0 13 -6 15
-9 4 -10 6 -1 6 6 1 14 -3 18 -8z m-2954 -84 c-6 -8 -8 -16 -5 -19 3 -3 1 -9
-4 -12 -6 -3 -9 0 -8 6 2 16 15 38 23 38 3 0 0 -6 -6 -13z m619 -161 c0 -3 -4
-8 -10 -11 -5 -3 -10 -1 -10 4 0 6 5 11 10 11 6 0 10 -2 10 -4z m-574 -29 c-1
-19 -5 -23 -21 -19 -11 3 -14 7 -7 10 7 2 9 9 6 14 -4 7 -2 8 4 4 7 -4 12 -2
12 3 0 6 2 11 4 11 2 0 3 -11 2 -23z m561 -18 c-2 -10 -6 -21 -10 -25 -3 -4
-5 3 -2 15 2 11 0 21 -6 21 -5 0 -9 4 -9 10 0 5 7 7 15 4 8 -3 13 -14 12 -25z
m-30 -14 c0 -8 -4 -12 -9 -9 -5 3 -6 10 -3 15 9 13 12 11 12 -6z m-532 -15
c-3 -5 -12 -10 -18 -10 -7 0 -6 4 3 10 19 12 23 12 15 0z m1035 -90 c0 -5 -8
-10 -17 -10 -15 0 -16 2 -3 10 19 12 20 12 20 0z m-520 -16 c0 -8 -19 -13 -24
-6 -3 5 1 9 9 9 8 0 15 -2 15 -3z m-13 -42 c-22 -24 -22 -38 1 -21 15 13 16
12 3 -4 -20 -25 -37 -6 -19 22 7 11 17 21 22 21 5 0 2 -8 -7 -18z m-47 -142
c8 -5 11 -10 5 -10 -5 0 -17 5 -25 10 -8 5 -10 10 -5 10 6 0 17 -5 25 -10z
m815 -110 c-3 -5 -12 -10 -18 -10 -7 0 -6 4 3 10 19 12 23 12 15 0z m19 -36
c3 -8 2 -12 -4 -9 -6 3 -10 10 -10 16 0 14 7 11 14 -7z m-1154 -194 c0 -5 -5
-10 -11 -10 -5 0 -7 5 -4 10 3 6 8 10 11 10 2 0 4 -4 4 -10z m380 0 c0 -5 -5
-10 -11 -10 -5 0 -7 5 -4 10 3 6 8 10 11 10 2 0 4 -4 4 -10z m1080 -2 c0 -4
-4 -8 -9 -8 -6 0 -12 4 -15 8 -3 5 1 9 9 9 8 0 15 -4 15 -9z m-1122 -88 c-7
-10 -14 -17 -17 -15 -4 4 18 35 25 35 2 0 -1 -9 -8 -20z"/>
<path d="M1410 6805 c0 -8 2 -15 4 -15 2 0 6 7 10 15 3 8 1 15 -4 15 -6 0 -10
-7 -10 -15z"/>
<path d="M1625 6811 c-3 -5 -2 -12 3 -15 5 -3 9 1 9 9 0 17 -3 19 -12 6z"/>
<path d="M1667 6787 c-3 -7 3 -13 14 -13 22 0 25 12 5 19 -8 3 -16 0 -19 -6z"/>
<path d="M2184 6719 c1 -7 10 -13 19 -15 9 -1 15 2 11 7 -3 5 -9 7 -14 4 -4
-3 -11 0 -13 5 -3 6 -4 5 -3 -1z"/>
<path d="M2877 6042 c-3 -4 5 -20 18 -36 15 -19 25 -24 30 -16 8 13 -9 35 -28
35 -7 1 -11 6 -9 13 2 13 -4 16 -11 4z m41 -47 c-3 -3 -9 2 -12 12 -6 14 -5
15 5 6 7 -7 10 -15 7 -18z"/>
<path d="M370 5853 c5 -2 8 -9 4 -14 -3 -5 0 -9 6 -9 15 0 7 23 -8 26 -7 1 -8
0 -2 -3z"/>
<path d="M3030 5825 c0 -5 5 -17 10 -25 5 -8 10 -10 10 -5 0 6 -5 17 -10 25
-5 8 -10 11 -10 5z"/>
<path d="M381 5726 c-9 -11 -9 -16 0 -21 8 -6 8 -9 -1 -15 -9 -5 -8 -9 2 -12
10 -4 14 4 14 28 0 39 0 38 -15 20z"/>
<path d="M3169 5643 c-13 -16 -12 -17 4 -4 9 7 17 15 17 17 0 8 -8 3 -21 -13z"/>
<path d="M3215 5560 c3 -5 8 -10 11 -10 2 0 4 5 4 10 0 6 -5 10 -11 10 -5 0
-7 -4 -4 -10z"/>
<path d="M398 5440 c14 -16 16 -34 4 -26 -5 3 -9 -1 -9 -8 0 -7 5 -13 12 -13
17 0 15 34 -3 48 -14 11 -15 11 -4 -1z"/>
<path d="M3315 5410 c3 -5 8 -10 11 -10 2 0 4 5 4 10 0 6 -5 10 -11 10 -5 0
-7 -4 -4 -10z"/>
<path d="M3436 5267 c3 -10 9 -15 12 -12 3 3 0 11 -7 18 -10 9 -11 8 -5 -6z"/>
<path d="M470 4886 c0 -2 7 -7 16 -10 8 -3 12 -2 9 4 -6 10 -25 14 -25 6z"/>
<path d="M3516 4858 c3 -4 9 -8 15 -8 5 0 9 4 9 8 0 5 -7 9 -15 9 -8 0 -12 -4
-9 -9z"/>
<path d="M514 4760 c0 -13 4 -16 10 -10 7 7 7 13 0 20 -6 6 -10 3 -10 -10z"/>
<path d="M3536 4707 c3 -10 9 -15 12 -12 3 3 0 11 -7 18 -10 9 -11 8 -5 -6z"/>
<path d="M556 4673 c-6 -14 -5 -15 5 -6 7 7 10 15 7 18 -3 3 -9 -2 -12 -12z"/>
<path d="M3490 4600 c0 -5 5 -10 10 -10 6 0 10 5 10 10 0 6 -4 10 -10 10 -5 0
-10 -4 -10 -10z"/>
<path d="M3426 4532 c-3 -5 1 -9 9 -9 8 0 12 4 9 9 -3 4 -7 8 -9 8 -2 0 -6 -4
-9 -8z"/>
<path d="M790 4283 c0 -19 21 -27 33 -13 9 10 9 11 -2 5 -8 -4 -17 -2 -22 6
-6 9 -9 10 -9 2z"/>
<path d="M875 4200 c-3 -5 -1 -10 4 -10 6 0 11 5 11 10 0 6 -2 10 -4 10 -3 0
-8 -4 -11 -10z"/>
<path d="M3168 4182 c4 -11 1 -13 -8 -7 -9 5 -11 4 -6 -4 6 -9 11 -9 22 0 18
15 18 26 0 26 -8 0 -12 -6 -8 -15z"/>
<path d="M3095 4050 c-3 -5 -1 -10 4 -10 6 0 11 5 11 10 0 6 -2 10 -4 10 -3 0
-8 -4 -11 -10z"/>
<path d="M986 4022 c-3 -5 1 -9 9 -9 8 0 12 4 9 9 -3 4 -7 8 -9 8 -2 0 -6 -4
-9 -8z"/>
<path d="M1024 3977 c-4 -6 -4 -9 1 -5 13 12 34 -11 28 -30 -4 -15 -3 -15 6
-2 15 20 14 23 -9 37 -15 10 -21 10 -26 0z"/>
<path d="M1170 3872 c0 -5 12 -14 26 -20 14 -7 23 -16 20 -20 -3 -5 1 -9 9 -9
19 0 11 11 -25 37 -17 12 -30 17 -30 12z"/>
<path d="M3220 3719 c0 -5 5 -7 10 -4 6 3 10 8 10 11 0 2 -4 4 -10 4 -5 0 -10
-5 -10 -11z"/>
<path d="M1414 3643 c1 -34 10 -35 19 -3 3 11 1 18 -3 15 -5 -3 -10 1 -13 7
-2 7 -4 -1 -3 -19z"/>
<path d="M3715 3480 c-3 -5 -1 -10 4 -10 6 0 11 5 11 10 0 6 -2 10 -4 10 -3 0
-8 -4 -11 -10z"/>
<path d="M3250 3380 c0 -5 5 -10 11 -10 5 0 7 5 4 10 -3 6 -8 10 -11 10 -2 0
-4 -4 -4 -10z"/>
<path d="M3590 3300 c0 -5 5 -10 11 -10 5 0 7 5 4 10 -3 6 -8 10 -11 10 -2 0
-4 -4 -4 -10z"/>
<path d="M1595 3281 c-9 -15 15 -25 28 -12 9 9 7 10 -7 5 -13 -5 -17 -4 -12 4
4 7 5 12 2 12 -3 0 -7 -4 -11 -9z"/>
<path d="M3267 3269 c7 -7 15 -10 18 -7 3 3 -2 9 -12 12 -14 6 -15 5 -6 -5z"/>
<path d="M3290 3241 c0 -6 4 -13 10 -16 6 -3 7 1 4 9 -7 18 -14 21 -14 7z"/>
<path d="M4205 3209 c-6 -17 -9 -19 -17 -8 -8 12 -9 11 -5 -1 2 -8 -3 -24 -12
-35 -15 -19 -15 -19 2 -6 25 20 60 71 48 71 -5 0 -13 -10 -16 -21z"/>
<path d="M1788 3068 c-9 -5 -6 -7 9 -5 12 2 25 6 28 8 8 9 -23 6 -37 -3z"/>
<path d="M3325 3020 c4 -6 11 -8 16 -5 14 9 11 15 -7 15 -8 0 -12 -5 -9 -10z"/>
<path d="M2095 2870 c-4 -6 -4 -14 -1 -17 3 -4 6 0 6 7 0 8 8 3 20 -10 11 -13
20 -19 20 -13 0 18 -37 45 -45 33z"/>
<path d="M3364 2820 c2 -16 20 -14 24 2 3 10 2 10 -6 -1 -7 -9 -11 -10 -15 -2
-4 7 -5 8 -3 1z"/>
<path d="M4610 2780 c0 -5 5 -10 11 -10 5 0 7 5 4 10 -3 6 -8 10 -11 10 -2 0
-4 -4 -4 -10z"/>
<path d="M2250 2750 c0 -5 5 -10 11 -10 5 0 7 5 4 10 -3 6 -8 10 -11 10 -2 0
-4 -4 -4 -10z"/>
<path d="M4840 2730 c-9 -6 -10 -10 -3 -10 6 0 15 5 18 10 8 12 4 12 -15 0z"/>
<path d="M4516 2662 c-3 -5 1 -9 9 -9 8 0 12 4 9 9 -3 4 -7 8 -9 8 -2 0 -6 -4
-9 -8z"/>
<path d="M4195 2630 c-3 -5 -1 -10 4 -10 6 0 11 5 11 10 0 6 -2 10 -4 10 -3 0
-8 -4 -11 -10z"/>
<path d="M4785 2620 c-3 -5 1 -10 10 -10 9 0 13 5 10 10 -3 6 -8 10 -10 10 -2
0 -7 -4 -10 -10z"/>
<path d="M2541 2610 c-9 -5 -10 -10 -2 -14 6 -4 11 -2 11 4 0 7 6 10 13 7 6
-2 11 -10 10 -16 -2 -6 2 -11 7 -11 6 0 10 8 10 18 0 19 -27 26 -49 12z"/>
<path d="M3100 2601 c0 -6 -5 -10 -11 -8 -6 1 -14 -5 -16 -13 -4 -12 -3 -12 5
-2 5 8 12 13 16 12 4 -1 12 0 18 2 9 3 9 6 0 12 -7 4 -12 2 -12 -3z"/>
<path d="M2883 2554 c-15 -16 -16 -24 -4 -24 8 0 24 30 19 35 -2 2 -9 -3 -15
-11z"/>
<path d="M3348 2563 c7 -3 16 -2 19 1 4 3 -2 6 -13 5 -11 0 -14 -3 -6 -6z"/>
<path d="M4305 2559 c-4 -6 -4 -13 -1 -16 3 -4 6 -1 6 6 0 7 5 9 12 5 7 -4 8
-3 4 4 -9 15 -13 15 -21 1z"/>
<path d="M3370 2061 c0 -6 4 -13 10 -16 6 -3 7 1 4 9 -7 18 -14 21 -14 7z"/>
<path d="M4918 2026 c5 -11 17 -21 26 -22 9 -1 13 2 10 8 -3 5 -8 7 -12 4 -3
-3 -11 2 -19 12 -13 16 -14 16 -5 -2z"/>
<path d="M5665 1970 c-3 -5 -5 -10 -3 -11 32 -7 48 -6 54 4 4 6 4 9 -1 5 -4
-4 -16 -3 -26 2 -12 7 -20 7 -24 0z"/>
<path d="M5417 1943 c-4 -3 -7 -11 -7 -17 0 -6 5 -5 12 2 6 6 9 14 7 17 -3 3
-9 2 -12 -2z"/>
<path d="M5314 1915 c-4 -8 -11 -12 -17 -8 -6 3 -7 1 -3 -5 10 -16 14 -15 26
8 6 11 8 20 5 20 -3 0 -8 -7 -11 -15z"/>
<path d="M5336 1912 c-3 -5 1 -9 9 -9 8 0 12 4 9 9 -3 4 -7 8 -9 8 -2 0 -6 -4
-9 -8z"/>
<path d="M5974 1899 c-3 -6 -2 -15 3 -20 5 -5 9 -1 10 11 2 22 -2 25 -13 9z"/>
<path d="M5084 1888 c-4 -6 -3 -8 4 -4 5 3 13 0 15 -6 3 -8 6 -6 6 5 1 19 -14
23 -25 5z"/>
<path d="M5130 1886 c0 -3 9 -10 20 -16 11 -6 20 -8 20 -6 0 3 -9 10 -20 16
-11 6 -20 8 -20 6z"/>
<path d="M6305 1720 c-7 -11 -8 -11 22 -14 18 -2 20 0 12 11 -14 16 -26 17
-34 3z"/>
<path d="M6375 1693 c3 -3 0 -11 -5 -18 -7 -8 -5 -12 4 -12 14 0 16 22 3 32
-4 3 -5 2 -2 -2z"/>
<path d="M6406 1613 c-6 -14 -5 -15 5 -6 7 7 10 15 7 18 -3 3 -9 -2 -12 -12z"/>
<path d="M6400 1586 c0 -2 6 -9 13 -15 10 -8 14 -7 14 4 0 8 -6 15 -14 15 -7
0 -13 -2 -13 -4z"/>
<path d="M6460 1479 c0 -5 5 -7 10 -4 6 3 10 8 10 11 0 2 -4 4 -10 4 -5 0 -10
-5 -10 -11z"/>
<path d="M6475 1370 c-3 -6 1 -7 9 -4 18 7 21 14 7 14 -6 0 -13 -4 -16 -10z"/>
<path d="M6495 1120 c-3 -5 -1 -10 4 -10 6 0 11 5 11 10 0 6 -2 10 -4 10 -3 0
-8 -4 -11 -10z"/>
<path d="M4225 871 c-3 -5 -2 -12 3 -15 5 -3 9 1 9 9 0 17 -3 19 -12 6z"/>
<path d="M4125 810 c-16 -7 -17 -9 -3 -9 9 -1 20 4 23 9 7 11 7 11 -20 0z"/>
<path d="M4220 810 c-12 -8 -10 -9 7 -7 12 2 26 6 29 10 11 11 -19 8 -36 -3z"/>
<path d="M3541 764 c0 -11 3 -14 6 -6 3 7 2 16 -1 19 -3 4 -6 -2 -5 -13z"/>
<path d="M4254 758 c-5 -7 -3 -8 6 -3 10 6 12 4 7 -8 -4 -11 -2 -14 9 -10 11
4 12 9 3 19 -14 17 -16 17 -25 2z"/>
<path d="M6356 702 c-3 -5 1 -9 9 -9 8 0 12 4 9 9 -3 4 -7 8 -9 8 -2 0 -6 -4
-9 -8z"/>
<path d="M4474 655 c-16 -12 -17 -14 -3 -15 9 0 19 7 23 15 7 19 5 19 -20 0z"/>
<path d="M4393 616 c-1 -11 1 -15 4 -8 4 10 8 10 19 1 8 -6 14 -7 14 -3 0 5
-8 14 -18 20 -15 10 -18 8 -19 -10z"/>
<path d="M6236 511 c-13 -14 -14 -21 -5 -27 7 -4 10 -3 5 4 -3 6 4 18 16 26
12 9 18 16 12 16 -6 0 -19 -9 -28 -19z"/>
<path d="M4165 419 c-4 -6 -5 -12 -2 -15 2 -3 7 2 10 11 7 17 1 20 -8 4z"/>
<path d="M3630 366 c0 -2 7 -7 16 -10 8 -3 12 -2 9 4 -6 10 -25 14 -25 6z"/>
<path d="M5926 252 c-3 -4 4 -9 15 -9 23 -2 25 3 4 10 -8 4 -16 3 -19 -1z"/>
<path d="M5875 220 c3 -5 8 -10 11 -10 2 0 4 5 4 10 0 6 -5 10 -11 10 -5 0 -7
-4 -4 -10z"/>
<path d="M5677 173 c-4 -3 -7 -11 -7 -17 0 -6 5 -5 12 2 6 6 9 14 7 17 -3 3
-9 2 -12 -2z"/>
<path d="M3820 50 c-8 -5 -10 -10 -5 -10 6 0 17 5 25 10 8 5 11 10 5 10 -5 0
-17 -5 -25 -10z"/>
<path d="M3925 10 c-16 -7 -17 -9 -3 -9 9 -1 20 4 23 9 7 11 7 11 -20 0z"/>
</g>
</svg>
